TITLE:   ONLINE 107 
FCM: DROP FRAME 
001     AX    V     C        00:00:12:00 00:00:15:01 01:08:41:15 01:08:44:16 
* FROM CLIP NAME:  FX 3-1 
002     AX    V     C        00:00:12:15 00:00:14:25 01:19:04:13 01:19:06:23 
* FROM CLIP NAME:  FX 6-1 
FCM: NON-DROP FRAME 
003  10702    V     C        02:34:28:26 02:34:29:03 01:23:00:22 01:23:00:29 
* FROM CLIP NAME:  15H/1 
004  10702    V     C        02:34:30:21 02:34:30:28 01:23:03:25 01:23:04:02 
* FROM CLIP NAME:  15H/1 
005  10702    V     C        02:34:31:11 02:34:31:18 01:23:10:09 01:23:10:16 
* FROM CLIP NAME:  15H/1 
006  10702    V     C        02:34:31:01 02:34:31:08 01:23:13:10 01:23:13:17 
* FROM CLIP NAME:  15H/1 
007  10702    V     C        02:34:31:21 02:34:31:28 01:23:14:23 01:23:15:00 
* FROM CLIP NAME:  15H/1 
008  10702    V     C        02:34:32:21 02:34:32:28 01:23:16:29 01:23:17:06 
* FROM CLIP NAME:  15H/1 
009  10702    V     C        02:34:36:21 02:34:36:28 01:23:20:08 01:23:20:15 
* FROM CLIP NAME:  15H/1 
FCM: DROP FRAME 
010     AX    V     C        00:00:12:00 00:00:15:01 01:25:06:02 01:25:09:03 
* FROM CLIP NAME:  FX 3-1 
011     BL    V     C        00:00:00:00 00:00:00:00 01:27:22:06 01:27:22:06 
FCM: NON-DROP FRAME 
011  DB46     V     D    045 10:53:40:29 10:53:44:00 01:27:22:06 01:27:25:07 
* TO CLIP NAME:  SUN-SETTING BEHIND TREES 
012  DB46     V     C        10:53:44:00 10:53:44:00 01:27:25:07 01:27:25:07 
FCM: DROP FRAME 
012     BL    V     D    045 00:00:00:00 00:00:01:15 01:27:25:07 01:27:26:22 
* FROM CLIP NAME:  SUN-SETTING BEHIND TREES 
013     AX    V     C        00:00:10:00 00:00:10:28 01:35:27:18 01:35:28:16 
* FROM CLIP NAME:  FX 15-1 
014     AX    V     C        00:00:10:15 00:00:13:09 01:35:29:23 01:35:32:17 
* FROM CLIP NAME:  FX 15-2 
015     AX    V     C        00:00:14:00 00:00:21:02 01:35:36:05 01:35:43:07 
* FROM CLIP NAME:  FX 15-3 
016     AX    V     C        00:00:11:15 00:00:13:09 01:35:49:16 01:35:51:10 
* FROM CLIP NAME:  FX 15-4 
017     AX    V     C        00:00:21:14 00:00:22:28 01:35:52:24 01:35:54:08 
* FROM CLIP NAME:  FX 15-5 
018     AX    V     C        00:00:12:15 00:00:13:02 01:35:57:02 01:35:57:19 
* FROM CLIP NAME:  FX 15-6 
019     AX    V     C        00:00:18:14 00:00:22:20 01:37:35:24 01:37:40:00 
* FROM CLIP NAME:  FX 17-1 
020     AX    V     C        00:00:19:29 00:00:22:02 01:37:41:23 01:37:43:26 
* FROM CLIP NAME:  FX 17-2 
021     AX    V     C        00:00:15:14 00:00:16:23 01:37:43:26 01:37:45:05 
* FROM CLIP NAME:  FX 17-4 
022     AX    V     C        00:00:22:14 00:00:26:04 01:37:45:05 01:37:48:25 
* FROM CLIP NAME:  FX 17-4 
023     AX    V     C        00:00:24:29 00:00:28:19 01:37:48:25 01:37:52:15 
* FROM CLIP NAME:  FX 17-5 
024     AX    V     C        00:00:14:00 00:00:14:18 01:38:15:20 01:38:16:08 
* FROM CLIP NAME:  FX 18-1 
025     AX    V     C        00:00:19:14 00:00:20:13 01:38:29:25 01:38:30:24 
* FROM CLIP NAME:  FX 19-1 
026     AX    V     C        00:00:10:00 00:00:10:20 01:38:35:01 01:38:35:21 
* FROM CLIP NAME:  FX 19-2 
027     AX    V     C        00:00:19:29 00:00:20:14 01:38:43:04 01:38:43:19 
* FROM CLIP NAME:  FX 19-3 
028     AX    V     C        00:00:20:14 00:00:20:29 01:38:48:17 01:38:49:02 
* FROM CLIP NAME:  FX 19-4 
029     AX    V     C        00:00:20:29 00:00:22:10 01:38:51:06 01:38:52:17 
* FROM CLIP NAME:  FX 19-5 
030     AX    V     C        00:00:10:15 00:00:11:14 01:39:26:04 01:39:27:03 
* FROM CLIP NAME:  FX 19-6 
031     AX    V     C        00:00:20:14 00:00:21:13 01:39:51:20 01:39:52:19 
* FROM CLIP NAME:  FX 19-7 
032     AX    V     C        00:00:19:29 00:00:20:28 01:39:53:19 01:39:54:18 
* FROM CLIP NAME:  FX 19-8 
033     AX    V     C        00:00:19:29 00:00:23:12 01:39:54:18 01:39:58:01 
* FROM CLIP NAME:  FX 19-9 
034     AX    V     C        00:00:19:29 00:00:25:19 01:40:00:06 01:40:05:26 
* FROM CLIP NAME:  FX 19-10 
035     AX    V     C        00:00:20:14 00:00:22:11 01:40:19:26 01:40:21:23 
* FROM CLIP NAME:  FX 20-1 
036     AX    V     C        00:00:20:08 00:00:22:10 01:40:21:23 01:40:23:25 
* FROM CLIP NAME:  FX 20-2 
