TITLE:   107V1 
FCM: DROP FRAME 
001     BL    V     C        00:00:00:00 00:00:00:00 01:00:00:00 01:00:00:00 
001  MTREEL   V     D    030 01:02:55:22 01:02:59:11 01:00:00:00 01:00:03:19 
* TO CLIP NAME:  FIRE  LOGO 
002  MTREEL   V     C        01:02:59:11 01:02:59:11 01:00:03:19 01:00:03:19 
FCM: NON-DROP FRAME 
002  10704    V     D    045 04:56:14:09 04:56:32:03 01:00:03:19 01:00:21:13 
* FROM CLIP NAME:  FIRE  LOGO 
* TO CLIP NAME:  1/4 
003  10704    V     C        04:39:10:28 04:39:12:01 01:00:21:13 01:00:22:16 
* FROM CLIP NAME:  1G/1 
004  10704    V     C        04:25:21:02 04:25:22:28 01:00:22:16 01:00:24:12 
* FROM CLIP NAME:  1A/1 
005  10704    V     C        04:40:01:06 04:40:02:07 01:00:24:12 01:00:25:13 
* FROM CLIP NAME:  1G/2 
006  10704    V     C        04:25:23:06 04:25:28:19 01:00:25:13 01:00:30:26 
* FROM CLIP NAME:  1A/1 
007  10704    V     C        04:40:06:29 04:40:08:19 01:00:30:26 01:00:32:16 
* FROM CLIP NAME:  1G/2 
008  10704    V     C        04:56:41:06 04:56:50:12 01:00:32:16 01:00:41:22 
* FROM CLIP NAME:  1/4 
009  10704    V     C        04:40:17:14 04:40:19:17 01:00:41:22 01:00:43:25 
* FROM CLIP NAME:  1G/2 
010  10704    V     C        04:25:41:23 04:25:48:02 01:00:43:25 01:00:50:04 
* FROM CLIP NAME:  1A/1 
011  10704    V     C        04:39:39:10 04:39:40:06 01:00:50:04 01:00:51:00 
* FROM CLIP NAME:  1G/1 
012  10704    V     C        04:25:47:26 04:25:51:29 01:00:51:00 01:00:55:03 
* FROM CLIP NAME:  1A/1 
013  10704    V     C        04:40:30:04 04:40:32:17 01:00:55:03 01:00:57:16 
* FROM CLIP NAME:  1G/2 
014  10704    V     C        04:25:54:02 04:25:56:07 01:00:57:16 01:00:59:21 
* FROM CLIP NAME:  1A/1 
015  10704    V     C        04:40:35:28 04:40:37:08 01:00:59:21 01:01:01:03 
* FROM CLIP NAME:  1G/2 
016  10704    V     C        04:25:57:17 04:26:11:10 01:01:01:03 01:01:14:26 
* FROM CLIP NAME:  1A/1 
017  10704    V     C        04:40:50:14 04:40:51:26 01:01:14:26 01:01:16:08 
* FROM CLIP NAME:  1G/2 
018  10704    V     C        04:26:12:22 04:26:14:22 01:01:16:08 01:01:18:08 
* FROM CLIP NAME:  1A/1 
019  10704    V     C        04:40:53:00 04:40:54:02 01:01:18:08 01:01:19:10 
* FROM CLIP NAME:  1G/2 
020  10704    V     C        04:26:14:22 04:26:18:20 01:01:19:10 01:01:23:08 
* FROM CLIP NAME:  1A/1 
021  10704    V     C        04:40:56:08 04:40:57:18 01:01:23:08 01:01:24:18 
* FROM CLIP NAME:  1G/2 
022  10704    V     C        04:26:20:00 04:26:28:27 01:01:24:18 01:01:33:15 
* FROM CLIP NAME:  1A/1 
023  10704    V     C        04:42:44:11 04:42:46:00 01:01:33:15 01:01:35:04 
* FROM CLIP NAME:  1H/2 
024  10704    V     C        04:30:05:07 04:30:08:07 01:01:35:04 01:01:38:04 
* FROM CLIP NAME:  1B/2 
025  10704    V     C        04:41:28:24 04:41:33:15 01:01:38:04 01:01:42:25 
* FROM CLIP NAME:  1H/1 
026  10704    V     C        04:33:07:29 04:33:11:09 01:01:42:25 01:01:46:05 
* FROM CLIP NAME:  1C/2 
027  10704    V     C        04:44:15:14 04:44:18:04 01:01:46:05 01:01:48:25 
* FROM CLIP NAME:  1K/1 
028  10704    V     C        04:33:13:29 04:33:16:19 01:01:48:25 01:01:51:15 
* FROM CLIP NAME:  1C/2 
029  10704    V     C        04:44:21:05 04:44:23:05 01:01:51:15 01:01:53:15 
* FROM CLIP NAME:  1K/1 
030  10704    V     C        04:28:57:17 04:29:00:11 01:01:53:15 01:01:56:09 
* FROM CLIP NAME:  1B/1 
031  10704    V     C        04:43:06:28 04:43:08:18 01:01:56:09 01:01:57:29 
* FROM CLIP NAME:  1H/2 
032  10704    V     C        04:29:02:01 04:29:04:05 01:01:57:29 01:02:00:05 
* FROM CLIP NAME:  1B/1 
033  10704    V     C        04:41:50:13 04:41:54:24 01:02:00:05 01:02:04:16 
* FROM CLIP NAME:  1H/1 
034  10704    V     C        04:30:37:15 04:30:39:27 01:02:04:16 01:02:06:28 
* FROM CLIP NAME:  1B/2 
035  10704    V     C        04:43:23:06 04:43:24:28 01:02:06:28 01:02:08:20 
* FROM CLIP NAME:  1H/2 
036  10704    V     C        04:33:53:29 04:33:56:14 01:02:08:20 01:02:11:05 
* FROM CLIP NAME:  1C/2 
037  10704    V     C        04:44:49:14 04:44:50:22 01:02:11:05 01:02:12:13 
* FROM CLIP NAME:  1K/1 
038  10704    V     C        04:33:58:13 04:34:01:23 01:02:12:13 01:02:15:23 
* FROM CLIP NAME:  1C/2 
039  10704    V     C        04:44:53:26 04:44:55:28 01:02:15:23 01:02:17:25 
* FROM CLIP NAME:  1K/1 
040  10704    V     C        04:28:02:03 04:28:03:13 01:02:17:25 01:02:19:05 
* FROM CLIP NAME:  1A/1 
041  10704    V     C        04:43:37:17 04:43:38:21 01:02:19:05 01:02:20:09 
* FROM CLIP NAME:  1H/2 
042  10704    V     C        04:34:29:02 04:34:36:13 01:02:20:09 01:02:27:20 
* FROM CLIP NAME:  1D/3 
043  10704    V     C        04:46:13:16 04:46:14:18 01:02:27:20 01:02:28:22 
* FROM CLIP NAME:  1L/4 
044  10704    V     C        04:35:28:23 04:35:31:15 01:02:28:22 01:02:31:14 
* FROM CLIP NAME:  1D/4 
045  10704    V     C        04:46:18:13 04:46:21:14 01:02:31:14 01:02:34:15 
* FROM CLIP NAME:  1L/4 
046  10704    V     C        04:37:07:28 04:37:11:03 01:02:34:15 01:02:37:20 
* FROM CLIP NAME:  1F/1 
047  10704    V     C        04:46:24:03 04:46:28:15 01:02:37:20 01:02:42:02 
* FROM CLIP NAME:  1L/4 
048  10704    V     C        04:38:39:17 04:38:42:12 01:02:42:02 01:02:44:27 
* FROM CLIP NAME:  1F/3 
049  10704    V     C        04:47:51:12 04:47:54:00 01:02:44:27 01:02:47:15 
* FROM CLIP NAME:  1M/2 
050  10704    V     C        04:38:07:03 04:38:09:29 01:02:47:15 01:02:50:11 
* FROM CLIP NAME:  1F/2 
051  10704    V     C        04:47:56:26 04:47:59:12 01:02:50:11 01:02:52:27 
* FROM CLIP NAME:  1M/2 
052  10704    V     C        04:38:12:10 04:38:14:23 01:02:52:27 01:02:55:10 
* FROM CLIP NAME:  1F/2 
FCM: DROP FRAME 
053  MTREEL   V     C        01:02:49:02 01:02:50:15 01:02:55:10 01:02:56:23 
* FROM CLIP NAME:  FIRE  LOGO 
054  MTREEL   V     C        01:01:20:00 01:02:20:02 01:02:56:23 01:03:56:25 
* FROM CLIP NAME:  MAIN TITLE TEXTED 
055     BL    V     C        00:00:00:00 00:00:00:00 01:03:56:25 01:03:56:25 
055  MTREEL   V     D    030 01:04:50:28 01:04:53:26 01:03:56:25 01:03:59:23 
* TO CLIP NAME:  ZHU ZHIN NIGHT 
FCM: NON-DROP FRAME 
056  10704    V     C        04:47:08:25 04:47:10:09 01:03:59:23 01:04:01:09 
* FROM CLIP NAME:  1L/5 PU 
057  10704    V     C        04:35:53:02 04:35:56:05 01:04:01:09 01:04:04:12 
* FROM CLIP NAME:  1D/4 
058  10705    V     C        05:07:26:20 05:08:01:24 01:04:04:12 01:04:39:16 
* FROM CLIP NAME:  2A/5 
059  10705    V     C        05:11:22:06 05:11:24:14 01:04:39:16 01:04:41:24 
* FROM CLIP NAME:  2D/1 
060  10705    V     C        05:10:25:21 05:10:28:00 01:04:41:24 01:04:44:03 
* FROM CLIP NAME:  2B/1 
061  10705    V     C        05:13:59:26 05:14:03:26 01:04:44:03 01:04:48:03 
* FROM CLIP NAME:  2E/2 
062  10705    V     C        05:10:33:10 05:10:37:25 01:04:48:03 01:04:52:18 
* FROM CLIP NAME:  2B/1 
063  10705    V     C        05:14:08:23 05:14:12:29 01:04:52:18 01:04:56:24 
* FROM CLIP NAME:  2E/2 
064  10705    V     C        05:10:41:05 05:10:42:28 01:04:56:24 01:04:58:17 
* FROM CLIP NAME:  2B/1 
065  10705    V     C        05:13:32:17 05:13:35:02 01:04:58:17 01:05:01:04 
* FROM CLIP NAME:  2E/1 
066  10705    V     C        05:10:45:29 05:10:47:00 01:05:01:04 01:05:02:05 
* FROM CLIP NAME:  2B/1 
067  2ND15    V     C        15:17:21:20 15:17:23:15 01:05:02:05 01:05:04:00 
* FROM CLIP NAME:  X2/SERIES C 
068  10705    V     C        05:10:47:20 05:10:49:03 01:05:04:00 01:05:05:13 
* FROM CLIP NAME:  2B/1 
069  10705    V     C        05:11:08:08 05:11:10:00 01:05:05:13 01:05:07:05 
* FROM CLIP NAME:  2C/1 
070  10705    V     C        05:10:49:26 05:10:51:06 01:05:07:05 01:05:08:15 
* FROM CLIP NAME:  2B/1 
071  10705    V     C        05:14:23:02 05:14:24:16 01:05:08:15 01:05:09:29 
* FROM CLIP NAME:  2E/2 
072  10705    V     C        05:10:53:22 05:10:56:19 01:05:09:29 01:05:12:26 
* FROM CLIP NAME:  2B/1 
073  2ND15    V     C        15:01:58:20 15:01:59:09 01:05:12:26 01:05:13:15 
* FROM CLIP NAME:  X2/ALL 
074  2ND15    V     C        15:05:08:09 15:05:08:22 01:05:13:15 01:05:13:28 
* FROM CLIP NAME:  X2D/CONT 
075  2ND15    V     C        15:01:17:25 15:01:18:15 01:05:13:28 01:05:14:18 
* FROM CLIP NAME:  X2/ALL 
076  2ND15    V     C        15:15:38:19 15:15:39:06 01:05:14:18 01:05:15:05 
* FROM CLIP NAME:  X2/SERIES C 
077  2ND15    V     C        15:03:45:13 15:03:46:00 01:05:15:05 01:05:15:22 
* FROM CLIP NAME:  X2/ALL 
078  2ND16    V     C        16:06:10:19 16:06:11:05 01:05:15:22 01:05:16:08 
* FROM CLIP NAME:  X2U/SERIES 
079  2ND16    V     C        16:07:14:17 16:07:15:24 01:05:16:08 01:05:17:15 
* FROM CLIP NAME:  X2AD/SERIES 
080  2ND16    V     C        16:07:35:19 16:07:36:16 01:05:17:15 01:05:18:12 
* FROM CLIP NAME:  X2AD/SERIES 
081  2ND15    V     C        15:06:51:01 15:06:52:09 01:05:18:12 01:05:19:20 
* FROM CLIP NAME:  X2D/CONT 
082  2ND15    V     C        15:19:25:01 15:19:25:23 01:05:19:20 01:05:20:12 
* FROM CLIP NAME:  X2/SERIES C 
083  2ND16    V     C        16:06:43:21 16:06:43:29 01:05:20:12 01:05:20:20 
* FROM CLIP NAME:  X2U/SERIES 
084  2ND15    V     C        15:06:53:00 15:06:53:22 01:05:20:20 01:05:21:12 
* FROM CLIP NAME:  X2D/CONT 
085  2ND16    V     C        16:09:13:25 16:09:14:05 01:05:21:12 01:05:21:22 
* FROM CLIP NAME:  X2AD/SERIES 
086  2ND15    V     C        15:06:53:20 15:06:54:21 01:05:21:22 01:05:22:23 
* FROM CLIP NAME:  X2D/CONT 
087  2ND16    V     C        16:06:25:25 16:06:26:04 01:05:22:23 01:05:23:02 
* FROM CLIP NAME:  X2U/SERIES 
088  2ND15    V     C        15:06:55:11 15:06:56:11 01:05:23:02 01:05:24:02 
* FROM CLIP NAME:  X2D/CONT 
089  2ND16    V     C        16:10:33:14 16:10:33:21 01:05:24:02 01:05:24:09 
* FROM CLIP NAME:  X2AD/SERIES 
090  2ND15    V     C        15:18:41:23 15:18:42:10 01:05:24:09 01:05:24:26 
* FROM CLIP NAME:  X2/SERIES C 
091  2ND15A   V     C        15:29:45:13 15:29:45:28 01:05:24:26 01:05:25:11 
* FROM CLIP NAME:  X2L/SERIES 
092  2ND16    V     C        16:09:59:29 16:10:00:06 01:05:25:11 01:05:25:18 
* FROM CLIP NAME:  X2AD/SERIES 
093  2ND15    V     C        15:18:42:27 15:18:43:06 01:05:25:18 01:05:25:27 
* FROM CLIP NAME:  X2/SERIES C 
094  2ND16    V     C        16:08:24:08 16:08:24:16 01:05:25:27 01:05:26:05 
* FROM CLIP NAME:  X2AD/SERIES 
095  2ND15    V     C        15:18:43:09 15:18:44:02 01:05:26:05 01:05:26:28 
* FROM CLIP NAME:  X2/SERIES C 
096  2ND15    V     C        15:09:06:29 15:09:08:29 01:05:26:28 01:05:28:28 
* FROM CLIP NAME:  X2J/SERIES 
097  2ND15    V     C        15:21:41:20 15:21:42:09 01:05:28:28 01:05:29:17 
* FROM CLIP NAME:  X2/SERIES C 
098  2ND15A   V     C        15:39:00:20 15:39:01:08 01:05:29:17 01:05:30:05 
* FROM CLIP NAME:  X2Z/SERIES C 
099  2ND15    V     C        15:09:11:04 15:09:12:02 01:05:30:05 01:05:31:03 
* FROM CLIP NAME:  X2J/SERIES 
100  2ND15    V     C        15:21:45:04 15:21:46:15 01:05:31:03 01:05:32:14 
* FROM CLIP NAME:  X2/SERIES C 
101  2ND15    V     C        15:09:14:09 15:09:15:05 01:05:32:14 01:05:33:10 
* FROM CLIP NAME:  X2J/SERIES 
102  2ND15A   V     C        15:32:12:13 15:32:13:06 01:05:33:10 01:05:34:03 
* FROM CLIP NAME:  X2L/SERIES 
103  2ND16    V     C        16:10:56:20 16:10:57:03 01:05:34:03 01:05:34:16 
* FROM CLIP NAME:  X2AD/SERIES 
104  2ND15    V     C        15:09:16:08 15:09:16:28 01:05:34:16 01:05:35:06 
* FROM CLIP NAME:  X2J/SERIES 
105  2ND16    V     C        16:08:04:13 16:08:05:07 01:05:35:06 01:05:36:00 
* FROM CLIP NAME:  X2AD/SERIES 
106  2ND15    V     C        15:21:50:02 15:21:53:28 01:05:36:00 01:05:39:26 
* FROM CLIP NAME:  X2/SERIES C 
107  2ND15    V     C        15:09:21:15 15:09:22:22 01:05:39:26 01:05:41:03 
* FROM CLIP NAME:  X2J/SERIES 
108  2ND16    V     C        16:08:43:04 16:08:43:14 01:05:41:03 01:05:41:13 
* FROM CLIP NAME:  X2AD/SERIES 
109  2ND15    V     C        15:09:22:28 15:09:24:01 01:05:41:13 01:05:42:16 
* FROM CLIP NAME:  X2J/SERIES 
110  2ND15    V     C        15:09:51:21 15:09:54:18 01:05:42:16 01:05:45:13 
* FROM CLIP NAME:  X2J/SERIES 
111  2ND15    V     C        15:10:11:21 15:10:12:09 01:05:45:13 01:05:46:01 
* FROM CLIP NAME:  X2J/SERIES 
112  2ND15A   V     C        15:23:40:11 15:23:41:22 01:05:46:01 01:05:47:12 
* FROM CLIP NAME:  X2L/SERIES 
113  2ND15A   V     C        15:23:19:27 15:23:20:26 01:05:47:12 01:05:48:11 
* FROM CLIP NAME:  X2L/SERIES 
114  2ND16    V     C        16:11:12:29 16:11:13:07 01:05:48:11 01:05:48:19 
* FROM CLIP NAME:  X2AD/SERIES 
115  2ND15A   V     C        15:23:21:03 15:23:22:18 01:05:48:19 01:05:50:04 
* FROM CLIP NAME:  X2L/SERIES 
116  2ND16    V     C        16:11:37:18 16:11:38:00 01:05:50:04 01:05:50:16 
M2   2ND16          045.0                16:11:37:18 
* FROM CLIP NAME:  X2AN/SERIES 
117  2ND15A   V     C        15:23:22:23 15:23:23:08 01:05:50:16 01:05:51:01 
* FROM CLIP NAME:  X2L/SERIES 
118  2ND15A   V     C        15:23:47:24 15:23:48:18 01:05:51:01 01:05:51:25 
* FROM CLIP NAME:  X2L/SERIES 
119  2ND15A   V     C        15:29:05:28 15:29:10:28 01:05:51:25 01:05:56:25 
* FROM CLIP NAME:  X2L/SERIES 
120  2ND15    V     C        15:10:38:19 15:10:39:01 01:05:56:25 01:05:57:07 
* FROM CLIP NAME:  X2J/SERIES 
121  2ND16    V     C        16:05:41:09 16:05:43:11 01:05:57:07 01:05:59:09 
* FROM CLIP NAME:  X2U/SERIES 
122  2ND15    V     C        15:10:29:18 15:10:30:18 01:05:59:09 01:06:00:11 
* FROM CLIP NAME:  X2J/SERIES 
123  2ND16    V     C        16:06:53:22 16:06:54:02 01:06:00:11 01:06:00:21 
* FROM CLIP NAME:  X2U/SERIES 
124  2ND15A   V     C        15:24:24:16 15:24:26:09 01:06:00:21 01:06:02:14 
* FROM CLIP NAME:  X2L/SERIES 
125  2ND15A   V     C        15:36:57:05 15:36:58:01 01:06:02:14 01:06:03:10 
* FROM CLIP NAME:  X2Z/SERIES C 
126  2ND15A   V     C        15:24:37:23 15:24:38:19 01:06:03:10 01:06:04:06 
* FROM CLIP NAME:  X2L/SERIES 
127  2ND16    V     C        16:11:44:23 16:11:45:06 01:06:04:06 01:06:04:19 
* FROM CLIP NAME:  X2AN/SERIES 
128  2ND16    V     C        16:12:24:04 16:12:25:10 01:06:04:19 01:06:05:25 
* FROM CLIP NAME:  X2AN/SERIES 
129  2ND15    V     C        15:11:20:28 15:11:21:26 01:06:05:25 01:06:06:23 
* FROM CLIP NAME:  X2J/SERIES 
130  2ND16    V     C        16:00:09:04 16:00:11:25 01:06:06:23 01:06:09:14 
* FROM CLIP NAME:  X2S/SERIES 
131  2ND15A   V     C        15:38:16:28 15:38:17:07 01:06:09:14 01:06:09:23 
* FROM CLIP NAME:  X2Z/SERIES C 
132  2ND15A   V     C        15:26:25:14 15:26:26:16 01:06:09:23 01:06:10:25 
* FROM CLIP NAME:  X2L/SERIES 
133  2ND15A   V     C        15:38:30:24 15:38:31:06 01:06:10:25 01:06:11:07 
* FROM CLIP NAME:  X2Z/SERIES C 
134  2ND16    V     C        16:00:52:14 16:00:52:26 01:06:11:07 01:06:11:19 
* FROM CLIP NAME:  X2S/SERIES 
135  2ND16    V     C        16:12:50:19 16:12:51:14 01:06:11:19 01:06:12:14 
* FLOP 
* FROM CLIP NAME:  X2AN/SERIES 
136  2ND16    V     C        16:09:57:26 16:09:58:15 01:06:12:14 01:06:13:03 
* FROM CLIP NAME:  X2AD/SERIES 
137  2ND16    V     C        16:01:09:02 16:01:10:29 01:06:13:03 01:06:15:00 
* FROM CLIP NAME:  X2S/SERIES 
138  2ND15A   V     C        15:32:31:27 15:32:35:09 01:06:15:00 01:06:18:12 
* FROM CLIP NAME:  X2T/SERIES C 
139  2ND16    V     C        16:04:23:13 16:04:25:14 01:06:18:12 01:06:20:13 
* FROM CLIP NAME:  X2U/SERIES 
140  2ND16    V     C        16:03:47:21 16:03:48:16 01:06:20:13 01:06:21:08 
* FROM CLIP NAME:  X2S/SERIES 
141  2ND16    V     C        16:12:13:14 16:12:13:26 01:06:21:08 01:06:21:20 
* FROM CLIP NAME:  X2AN/SERIES 
142  2ND16    V     C        16:03:48:18 16:03:49:26 01:06:21:20 01:06:22:28 
* FROM CLIP NAME:  X2S/SERIES 
143  2ND15A   V     C        15:35:50:14 15:35:53:07 01:06:22:28 01:06:25:21 
* FROM CLIP NAME:  X2T/SERIES C 
144  2ND15A   V     C        15:38:19:11 15:38:19:27 01:06:25:21 01:06:26:07 
* FROM CLIP NAME:  X2Z/SERIES C 
145  2ND16    V     C        16:13:16:25 16:13:19:12 01:06:26:07 01:06:28:24 
* FROM CLIP NAME:  X2AN/SERIES 
146  2ND15    V     C        15:17:01:05 15:17:01:27 01:06:28:24 01:06:29:16 
* FROM CLIP NAME:  X2/SERIES C 
147  2ND15    V     C        15:04:50:09 15:04:52:01 01:06:29:16 01:06:31:08 
* FROM CLIP NAME:  X2D/CONT 
148  2ND15    V     C        15:17:03:14 15:17:04:04 01:06:31:08 01:06:31:28 
* FROM CLIP NAME:  X2/SERIES C 
149  10705    V     C        05:17:26:16 05:17:28:12 01:06:31:28 01:06:33:24 
* FROM CLIP NAME:  2F/3 
150  10705    V     C        05:06:06:04 05:06:07:12 01:06:33:24 01:06:35:02 
* FROM CLIP NAME:  2/2 
151  2ND16    V     C        16:06:22:07 16:06:23:12 01:06:35:02 01:06:36:07 
* FROM CLIP NAME:  X2U/SERIES 
152  2ND15    V     C        15:13:09:06 15:13:10:20 01:06:36:07 01:06:37:21 
* FROM CLIP NAME:  X2/SERIES C 
153  10705    V     C        05:06:08:09 05:06:09:01 01:06:37:21 01:06:38:13 
* FROM CLIP NAME:  2/2 
154  10705    V     C        05:17:29:22 05:17:32:07 01:06:38:13 01:06:40:28 
* FROM CLIP NAME:  2F/3 
155  10705    V     C        05:22:17:10 05:22:20:17 01:06:40:28 01:06:44:05 
* FROM CLIP NAME:  2G/2 
156  10705    V     C        05:06:16:09 05:06:18:24 01:06:44:05 01:06:46:20 
* FROM CLIP NAME:  2/2 
157  10705    V     C        05:17:36:09 05:17:38:03 01:06:46:20 01:06:48:14 
* FROM CLIP NAME:  2F/3 
158  10705    V     C        05:06:24:08 05:06:27:04 01:06:48:14 01:06:51:10 
* FROM CLIP NAME:  2/2 
159  10705    V     C        05:21:45:08 05:21:46:14 01:06:51:10 01:06:52:16 
* FROM CLIP NAME:  2G/1 
160  10705    V     C        05:06:28:11 05:06:29:26 01:06:52:16 01:06:54:01 
* FROM CLIP NAME:  2/2 
161  10705    V     C        05:22:28:11 05:22:30:22 01:06:54:01 01:06:56:12 
* FROM CLIP NAME:  2G/2 
162  10705    V     C        05:06:34:11 05:06:37:11 01:06:56:12 01:06:59:12 
* FROM CLIP NAME:  2/2 
163  10705    V     C        05:17:38:27 05:17:41:02 01:06:59:12 01:07:01:19 
* FROM CLIP NAME:  2F/3 
164  10705    V     C        05:22:35:00 05:22:36:08 01:07:01:19 01:07:02:27 
* FROM CLIP NAME:  2G/2 
165  10705    V     C        05:06:40:25 05:06:43:17 01:07:02:27 01:07:05:19 
* FROM CLIP NAME:  2/2 
166  10705    V     C        05:22:42:16 05:22:43:24 01:07:05:19 01:07:06:27 
* FROM CLIP NAME:  2G/2 
167  10705    V     C        05:06:45:05 05:06:46:11 01:07:06:27 01:07:08:03 
* FROM CLIP NAME:  2/2 
168  10705    V     C        05:22:45:17 05:22:47:05 01:07:08:03 01:07:09:21 
* FROM CLIP NAME:  2G/2 
169  10705    V     C        05:20:01:22 05:20:02:25 01:07:09:21 01:07:10:24 
* FROM CLIP NAME:  2F/4 
170  10705    V     C        05:22:47:22 05:22:49:19 01:07:10:24 01:07:12:21 
* FROM CLIP NAME:  2G/2 
171  10705    V     C        05:06:50:14 05:06:54:10 01:07:12:21 01:07:16:17 
* FROM CLIP NAME:  2/2 
172  10705    V     C        05:17:58:04 05:18:00:28 01:07:16:17 01:07:19:11 
* FROM CLIP NAME:  2F/3 
173  10705    V     C        05:06:56:07 05:07:02:02 01:07:19:11 01:07:25:06 
* FROM CLIP NAME:  2/2 
174  10705    V     C        05:18:02:21 05:18:05:10 01:07:25:06 01:07:27:25 
* FROM CLIP NAME:  2F/3 
175  10705    V     C        05:07:04:21 05:07:08:05 01:07:27:25 01:07:31:09 
* FROM CLIP NAME:  2/2 
176  10705    V     C        05:18:10:21 05:18:12:10 01:07:31:09 01:07:32:28 
* FROM CLIP NAME:  2F/3 
177  10705    V     C        05:07:08:28 05:07:12:07 01:07:32:28 01:07:36:07 
* FROM CLIP NAME:  2/2 
178  10705    V     C        05:18:14:13 05:19:19:19 01:07:36:07 01:08:41:15 
* FROM CLIP NAME:  2F/3 
FCM: DROP FRAME 
179     AX    V     C        00:00:28:14 00:00:31:15 01:08:41:15 01:08:44:16 
* BLACK DRAGON LAIR 
* FROM CLIP NAME:  BD LAIR 
FCM: NON-DROP FRAME 
180  10708    V     C        08:41:14:16 08:41:17:29 01:08:44:16 01:08:47:29 
* FROM CLIP NAME:  3/2 B 
181  10709    V     C        09:08:02:11 09:08:06:05 01:08:47:29 01:08:51:23 
* FROM CLIP NAME:  3D/2 
182  10708    V     C        08:36:20:29 08:36:23:11 01:08:51:23 01:08:54:05 
* FROM CLIP NAME:  3/2 
183  10709    V     C        09:14:14:13 09:14:15:18 01:08:54:05 01:08:55:10 
* FROM CLIP NAME:  3F/2 
184  10709    V     C        09:08:07:26 09:08:10:06 01:08:55:10 01:08:57:20 
* FROM CLIP NAME:  3D/2 
185  10709    V     C        09:14:17:28 09:14:19:27 01:08:57:20 01:08:59:19 
* FROM CLIP NAME:  3F/2 
186  10708    V     C        08:41:30:11 08:41:37:02 01:08:59:19 01:09:06:12 
* FROM CLIP NAME:  3/2 B 
187  10709    V     C        09:14:23:24 09:14:26:18 01:09:06:12 01:09:09:06 
* FROM CLIP NAME:  3F/2 
188  10709    V     C        09:08:25:06 09:08:27:26 01:09:09:06 01:09:11:26 
* FROM CLIP NAME:  3D/2 
189  10708    V     C        08:41:43:22 08:41:46:21 01:09:11:26 01:09:14:25 
* FROM CLIP NAME:  3/2 B 
190  10709    V     C        09:08:30:25 09:08:34:12 01:09:14:25 01:09:18:12 
* FROM CLIP NAME:  3D/2 
191  10708    V     C        08:42:06:08 08:42:07:15 01:09:18:12 01:09:19:19 
* FROM CLIP NAME:  3/2 B 
192  10709    V     C        09:08:35:04 09:08:36:11 01:09:19:19 01:09:20:26 
* FROM CLIP NAME:  3D/2 
193  10709    V     C        09:14:43:01 09:14:45:05 01:09:20:26 01:09:23:00 
* FROM CLIP NAME:  3F/2 
194  10709    V     C        09:08:38:07 09:08:41:04 01:09:23:00 01:09:25:27 
* FROM CLIP NAME:  3D/2 
195  10709    V     C        09:01:19:02 09:01:20:27 01:09:25:27 01:09:27:22 
* FROM CLIP NAME:  3B/1 
196  10708    V     C        08:37:13:21 08:37:16:24 01:09:27:22 01:09:30:25 
* FROM CLIP NAME:  3/2 
197  10708    V     C        08:38:34:29 08:38:40:28 01:09:30:25 01:09:36:24 
* FROM CLIP NAME:  3A/2 
198  10709    V     C        09:15:11:01 09:15:13:09 01:09:36:24 01:09:39:02 
* FROM CLIP NAME:  3G/2 
199  10709    V     C        09:09:04:00 09:09:06:02 01:09:39:02 01:09:41:04 
* FROM CLIP NAME:  3D/2 
200  10709    V     C        09:15:15:11 09:15:17:27 01:09:41:04 01:09:43:20 
* FROM CLIP NAME:  3G/2 
201  10709    V     C        09:01:36:12 09:01:38:20 01:09:43:20 01:09:45:28 
* FROM CLIP NAME:  3B/1 
202  10709    V     C        09:11:56:05 09:11:59:04 01:09:45:28 01:09:48:27 
* FROM CLIP NAME:  3E/1 
203  10709    V     C        09:17:27:21 09:17:30:17 01:09:48:27 01:09:51:23 
* FROM CLIP NAME:  3H/1 
204  10709    V     C        09:01:45:02 09:01:48:29 01:09:51:23 01:09:55:20 
* FROM CLIP NAME:  3B/1 
205  10709    V     C        09:12:01:07 09:12:03:16 01:09:55:20 01:09:57:29 
* FROM CLIP NAME:  3E/1 
206  10709    V     C        09:01:51:08 09:01:54:18 01:09:57:29 01:10:01:09 
* FROM CLIP NAME:  3B/1 
207  10709    V     C        09:12:12:07 09:12:14:23 01:10:01:09 01:10:03:25 
* FROM CLIP NAME:  3E/1 
208  10709    V     C        09:17:40:18 09:17:42:26 01:10:03:25 01:10:06:03 
* FROM CLIP NAME:  3H/1 
209  10709    V     C        09:12:17:01 09:12:20:11 01:10:06:03 01:10:09:13 
* FROM CLIP NAME:  3E/1 
210  10709    V     C        09:02:05:00 09:02:06:22 01:10:09:13 01:10:11:05 
* FROM CLIP NAME:  3B/1 
211  10709    V     C        09:12:21:12 09:12:23:16 01:10:11:05 01:10:13:09 
* FROM CLIP NAME:  3E/1 
212  10709    V     C        09:02:08:26 09:02:11:02 01:10:13:09 01:10:15:15 
* FROM CLIP NAME:  3B/1 
213  10709    V     C        09:17:48:20 09:17:49:27 01:10:15:15 01:10:16:22 
* FROM CLIP NAME:  3H/1 
214  10709    V     C        09:12:31:15 09:12:33:11 01:10:16:22 01:10:18:18 
* FROM CLIP NAME:  3E/1 
215  10708    V     C        08:39:50:25 08:39:58:01 01:10:18:18 01:10:25:24 
* FROM CLIP NAME:  3A/2 
216  10709    V     C        09:12:46:28 09:12:49:13 01:10:25:24 01:10:28:09 
* FROM CLIP NAME:  3E/1 
217  10709    V     C        09:18:06:22 09:18:09:02 01:10:28:09 01:10:30:19 
* FROM CLIP NAME:  3H/1 
218  10709    V     C        09:02:27:22 09:02:35:05 01:10:30:19 01:10:38:02 
* FROM CLIP NAME:  3B/1 
219  10709    V     C        09:12:49:29 09:12:53:20 01:10:38:02 01:10:41:23 
* FROM CLIP NAME:  3E/1 
220  10709    V     C        09:02:38:26 09:02:45:00 01:10:41:23 01:10:47:27 
* FROM CLIP NAME:  3B/1 
221  10709    V     C        09:18:28:19 09:18:32:16 01:10:47:27 01:10:51:24 
* FROM CLIP NAME:  3H/1 
222  10709    V     C        09:12:58:03 09:13:01:28 01:10:51:24 01:10:55:19 
* FROM CLIP NAME:  3E/1 
223  10709    V     C        09:18:12:09 09:18:14:00 01:10:55:19 01:10:57:10 
* FROM CLIP NAME:  3H/1 
224  10709    V     C        09:03:52:24 09:03:54:03 01:10:57:10 01:10:58:19 
* FROM CLIP NAME:  3C/1 
225  10709    V     C        09:13:03:03 09:13:04:14 01:10:58:19 01:11:00:02 
* FROM CLIP NAME:  3E/1 
226  10709    V     C        09:22:32:24 09:22:41:20 01:11:00:02 01:11:08:28 
* FROM CLIP NAME:  3B/1 B 
227  10709    V     C        09:18:34:11 09:18:38:10 01:11:08:28 01:11:12:27 
* FROM CLIP NAME:  3H/1 
228  10709    V     C        09:13:12:10 09:13:15:07 01:11:12:27 01:11:15:24 
* FROM CLIP NAME:  3E/1 
229  10709    V     C        09:03:12:07 09:03:16:09 01:11:15:24 01:11:19:26 
* FROM CLIP NAME:  3B/1 
230  10709    V     C        09:13:24:19 09:13:27:15 01:11:19:26 01:11:22:22 
* FROM CLIP NAME:  3E/1 
231  10709    V     C        09:03:04:13 09:03:06:16 01:11:22:22 01:11:24:25 
* FROM CLIP NAME:  3B/1 
232  10709    V     C        09:18:29:16 09:18:31:08 01:11:24:25 01:11:26:17 
* FROM CLIP NAME:  3H/1 
233  10301    V     C        01:09:43:00 01:09:46:13 01:11:26:17 01:11:30:00 
* FROM CLIP NAME:  TRADING POST 
234  10707    V     C        07:06:24:10 07:06:47:26 01:11:30:00 01:11:53:16 
* FROM CLIP NAME:  4/4 
235  10707    V     C        07:12:20:15 07:12:23:10 01:11:53:16 01:11:56:11 
* FROM CLIP NAME:  4C/3 
236  10707    V     C        07:10:29:28 07:10:31:15 01:11:56:11 01:11:57:28 
* FROM CLIP NAME:  4B/2 
237  10707    V     C        07:06:52:10 07:06:55:21 01:11:57:28 01:12:01:11 
* FROM CLIP NAME:  4/4 
238  10707    V     C        07:11:35:06 07:11:36:17 01:12:01:11 01:12:02:22 
* FROM CLIP NAME:  4C/2 
239  10707    V     C        07:08:33:09 07:08:35:15 01:12:02:22 01:12:04:28 
* FROM CLIP NAME:  4A/2 
240  10707    V     C        07:10:36:06 07:10:37:20 01:12:04:28 01:12:06:12 
* FROM CLIP NAME:  4B/2 
241  10707    V     C        07:07:48:03 07:07:49:24 01:12:06:12 01:12:08:03 
* FROM CLIP NAME:  4A/1 
242  10707    V     C        07:12:34:14 07:12:36:01 01:12:08:03 01:12:09:20 
* FROM CLIP NAME:  4C/3 
243  10707    V     C        07:10:43:06 07:10:44:11 01:12:09:20 01:12:10:25 
* FROM CLIP NAME:  4B/2 
244  10707    V     C        07:07:50:25 07:07:51:16 01:12:10:25 01:12:11:16 
* FROM CLIP NAME:  4A/1 
245  10707    V     C        07:12:38:10 07:12:40:17 01:12:11:16 01:12:13:23 
* FROM CLIP NAME:  4C/3 
246  10707    V     C        07:07:06:01 07:07:06:20 01:12:13:23 01:12:14:12 
* FROM CLIP NAME:  4/4 
247  10707    V     C        07:11:45:20 07:11:46:08 01:12:14:12 01:12:15:00 
* FROM CLIP NAME:  4C/2 
248  10707    V     C        07:10:48:00 07:10:49:13 01:12:15:00 01:12:16:13 
* FROM CLIP NAME:  4B/2 
249  10707    V     C        07:12:42:08 07:12:43:23 01:12:16:13 01:12:17:28 
* FROM CLIP NAME:  4C/3 
250  10707    V     C        07:08:47:00 07:08:48:10 01:12:17:28 01:12:19:08 
* FROM CLIP NAME:  4A/2 
251  10707    V     C        07:10:53:09 07:10:55:02 01:12:19:08 01:12:21:01 
* FROM CLIP NAME:  4B/2 
252  10707    V     C        07:12:49:09 07:12:50:27 01:12:21:01 01:12:22:19 
* FROM CLIP NAME:  4C/3 
253  10707    V     C        07:08:12:00 07:08:14:07 01:12:22:19 01:12:24:26 
* FROM CLIP NAME:  4A/1 
254  10707    V     C        07:09:40:12 07:09:41:29 01:12:24:26 01:12:26:13 
* FROM CLIP NAME:  4B/1 
255  10707    V     C        07:12:54:21 07:13:00:02 01:12:26:13 01:12:31:24 
* FROM CLIP NAME:  4C/3 
256  10707    V     C        07:10:59:29 07:11:01:15 01:12:31:24 01:12:33:10 
* FROM CLIP NAME:  4B/2 
257  10707    V     C        07:13:00:03 07:13:02:08 01:12:33:10 01:12:35:15 
* FROM CLIP NAME:  4C/3 
258  10707    V     C        07:07:24:27 07:07:27:22 01:12:35:15 01:12:38:10 
* FROM CLIP NAME:  4/4 
259  10707    V     C        07:11:10:20 07:11:13:24 01:12:38:10 01:12:41:14 
* FROM CLIP NAME:  4B/2 
260  10707    V     C        07:09:07:25 07:09:10:03 01:12:41:14 01:12:43:22 
* FROM CLIP NAME:  4A/2 
FCM: DROP FRAME 
261  MTREEL   V     C        01:04:51:29 01:04:53:18 01:12:43:22 01:12:45:11 
* FROM CLIP NAME:  ZHU ZHIN NIGHT 
262  MTREEL   V     C        01:04:53:18 01:04:53:18 01:12:45:11 01:12:45:11 
FCM: NON-DROP FRAME 
262  10705    V     D    045 05:34:55:15 05:35:04:06 01:12:45:11 01:12:54:02 
* FROM CLIP NAME:  ZHU ZHIN NIGHT 
* TO CLIP NAME:  A5/2 
263  10705    V     C        05:47:01:22 05:47:04:08 01:12:54:02 01:12:56:18 
* FROM CLIP NAME:  A5C/2 
264  10705    V     C        05:35:05:26 05:35:09:17 01:12:56:18 01:13:00:11 
* FROM CLIP NAME:  A5/2 
265  10705    V     C        05:47:07:18 05:47:10:11 01:13:00:11 01:13:03:04 
* FROM CLIP NAME:  A5C/2 
266  10705    V     C        05:34:35:25 05:34:37:15 01:13:03:04 01:13:04:24 
* FROM CLIP NAME:  A5/1 
267  10705    V     C        05:47:12:01 05:47:14:13 01:13:04:24 01:13:07:06 
* FROM CLIP NAME:  A5C/2 
268  10705    V     C        05:34:39:06 05:34:40:28 01:13:07:06 01:13:08:28 
* FROM CLIP NAME:  A5/1 
269  10705    V     C        05:47:16:05 05:47:19:28 01:13:08:28 01:13:12:21 
* FROM CLIP NAME:  A5C/2 
270  10705    V     C        05:38:19:00 05:38:20:04 01:13:12:21 01:13:13:25 
* FROM CLIP NAME:  A5A/2 
271  10705    V     C        05:44:01:05 05:44:02:23 01:13:13:25 01:13:15:13 
* FROM CLIP NAME:  A5C/1 
272  10705    V     C        05:38:21:06 05:38:22:25 01:13:15:13 01:13:17:02 
* FROM CLIP NAME:  A5A/2 
273  10705    V     C        05:47:26:24 05:47:30:16 01:13:17:02 01:13:20:24 
* FROM CLIP NAME:  A5C/2 
274  10705    V     C        05:35:41:15 05:35:43:08 01:13:20:24 01:13:22:17 
* FROM CLIP NAME:  A5A/1 
275  10705    V     C        05:50:54:12 05:50:56:22 01:13:22:17 01:13:24:27 
* FROM CLIP NAME:  A5D/1 
276  10705    V     C        05:40:55:26 05:40:58:12 01:13:24:27 01:13:27:13 
* FROM CLIP NAME:  A5B/1 
277  10705    V     C        05:51:00:17 05:51:02:13 01:13:27:13 01:13:29:09 
* FROM CLIP NAME:  A5D/1 
278  10705    V     C        05:41:01:17 05:41:03:24 01:13:29:09 01:13:31:16 
* FROM CLIP NAME:  A5B/1 
279  10705    V     C        05:51:17:07 05:51:19:07 01:13:31:16 01:13:33:16 
* FROM CLIP NAME:  A5D/1 
280  10705    V     C        05:41:07:06 05:41:08:16 01:13:33:16 01:13:34:26 
* FROM CLIP NAME:  A5B/1 
281  10705    V     C        05:51:28:02 05:51:29:12 01:13:34:26 01:13:36:06 
* FROM CLIP NAME:  A5D/1 
282  10705    V     C        05:41:11:09 05:41:13:23 01:13:36:06 01:13:38:20 
* FROM CLIP NAME:  A5B/1 
283  10705    V     C        05:48:25:06 05:48:27:02 01:13:38:20 01:13:40:16 
* FROM CLIP NAME:  A5C/2 
284  10705    V     C        05:36:30:11 05:36:30:25 01:13:40:16 01:13:41:00 
* FROM CLIP NAME:  A5A/1 
285  10705    V     C        05:48:27:09 05:48:29:00 01:13:41:00 01:13:42:21 
* FROM CLIP NAME:  A5C/2 
286  10705    V     C        05:36:32:16 05:36:34:23 01:13:42:21 01:13:44:28 
* FROM CLIP NAME:  A5A/1 
287  10705    V     C        05:48:32:27 05:48:34:03 01:13:44:28 01:13:46:04 
* FROM CLIP NAME:  A5C/2 
288  10705    V     C        05:39:00:27 05:39:03:06 01:13:46:04 01:13:48:13 
* FROM CLIP NAME:  A5A/2 
289  10705    V     C        05:55:28:04 05:55:31:22 01:13:48:13 01:13:52:01 
* FROM CLIP NAME:  A5D/2 PU 
290  10705    V     C        05:42:05:16 05:42:06:14 01:13:52:01 01:13:52:29 
* FROM CLIP NAME:  A5B/1 
291  10705    V     C        05:55:32:18 05:55:34:03 01:13:52:29 01:13:54:14 
* FROM CLIP NAME:  A5D/2 PU 
292  10705    V     C        05:42:14:25 05:42:16:09 01:13:54:14 01:13:55:28 
* FROM CLIP NAME:  A5B/1 
293  10705    V     C        05:55:38:29 05:55:41:04 01:13:55:28 01:13:58:03 
* FROM CLIP NAME:  A5D/2 PU 
294  10705    V     C        05:42:19:08 05:42:22:17 01:13:58:03 01:14:01:14 
* FROM CLIP NAME:  A5B/1 
295  10705    V     C        05:55:53:20 05:55:57:15 01:14:01:14 01:14:05:09 
* FROM CLIP NAME:  A5D/2 PU 
296  10705    V     C        05:42:30:05 05:42:32:04 01:14:05:09 01:14:07:08 
* FROM CLIP NAME:  A5B/1 
297  10705    V     C        05:56:00:01 05:56:02:11 01:14:07:08 01:14:09:18 
* FROM CLIP NAME:  A5D/2 PU 
298  10705    V     C        05:42:35:14 05:42:36:23 01:14:09:18 01:14:10:27 
* FROM CLIP NAME:  A5B/1 
299  10705    V     C        05:56:05:12 05:56:07:01 01:14:10:27 01:14:12:16 
* FROM CLIP NAME:  A5D/2 PU 
300  10705    V     C        05:42:38:12 05:42:41:19 01:14:12:16 01:14:15:23 
* FROM CLIP NAME:  A5B/1 
301  10705    V     C        05:56:12:07 05:56:16:00 01:14:15:23 01:14:19:16 
* FROM CLIP NAME:  A5D/2 PU 
302  10705    V     C        05:42:42:05 05:42:45:18 01:14:19:16 01:14:22:29 
* FROM CLIP NAME:  A5B/1 
303  10705    V     C        05:56:45:15 05:56:48:02 01:14:22:29 01:14:25:16 
* FROM CLIP NAME:  A5D/2 PU 
304  10705    V     C        05:42:53:14 05:42:56:20 01:14:25:16 01:14:28:22 
* FROM CLIP NAME:  A5B/1 
305  10705    V     C        05:56:59:27 05:57:01:16 01:14:28:22 01:14:30:11 
* FROM CLIP NAME:  A5D/2 PU 
306  10705    V     C        05:40:04:28 05:40:07:16 01:14:30:11 01:14:32:29 
* FROM CLIP NAME:  A5A/2 
307  10705    V     C        05:49:57:18 05:50:02:05 01:14:32:29 01:14:37:16 
* FROM CLIP NAME:  A5C/2 
308  10705    V     C        05:37:59:03 05:38:00:21 01:14:37:16 01:14:39:04 
* FROM CLIP NAME:  A5A/1 
309  10705    V     C        05:50:03:29 05:50:07:18 01:14:39:04 01:14:42:23 
* FROM CLIP NAME:  A5C/2 
310  10705    V     C        05:40:23:10 05:40:24:10 01:14:42:23 01:14:43:23 
* FROM CLIP NAME:  A5A/2 
311  10705    V     C        05:40:24:10 05:40:24:10 01:14:43:23 01:14:43:23 
311  10705B   V     D    045 05:27:57:18 05:28:00:23 01:14:43:23 01:14:46:28 
* FROM CLIP NAME:  A5A/2 
* TO CLIP NAME:  5/3 
312  10705    V     C        05:31:12:18 05:31:14:21 01:14:46:28 01:14:49:01 
* FROM CLIP NAME:  5A/3 
313  10705    V     C        05:26:44:19 05:27:00:06 01:14:49:01 01:15:04:20 
* FROM CLIP NAME:  5/2 
314  10705    V     C        05:29:18:08 05:29:20:05 01:15:04:20 01:15:06:17 
* FROM CLIP NAME:  5A/1 
315  10705    V     C        05:28:15:18 05:28:21:00 01:15:06:17 01:15:11:29 
* FROM CLIP NAME:  5/3 
316  10705    V     C        05:31:29:08 05:31:32:01 01:15:11:29 01:15:14:22 
* FROM CLIP NAME:  5A/3 
317  10705    V     C        05:27:10:14 05:27:14:05 01:15:14:22 01:15:18:13 
* FROM CLIP NAME:  5/2 
318  10705    V     C        05:31:37:24 05:31:39:23 01:15:18:13 01:15:20:12 
* FROM CLIP NAME:  5A/3 
319  10705    V     C        05:26:11:04 05:26:12:14 01:15:20:12 01:15:21:22 
* FROM CLIP NAME:  5/1 
320  10705    V     C        05:31:41:23 05:31:43:24 01:15:21:22 01:15:23:23 
* FROM CLIP NAME:  5A/3 
321  10705    V     C        05:28:33:03 05:28:34:15 01:15:23:23 01:15:25:05 
* FROM CLIP NAME:  5/3 
322  10705    V     C        05:30:51:22 05:30:53:00 01:15:25:05 01:15:26:13 
* FROM CLIP NAME:  5A/2 
323  10705    V     C        05:28:36:04 05:28:37:25 01:15:26:13 01:15:28:04 
* FROM CLIP NAME:  5/3 
324  10705    V     C        05:31:48:05 05:31:55:12 01:15:28:04 01:15:35:11 
* FROM CLIP NAME:  5A/3 
325  10705    V     C        05:27:37:07 05:27:39:12 01:15:35:11 01:15:37:16 
* FROM CLIP NAME:  5/2 
326  10705    V     C        05:27:39:12 05:27:39:12 01:15:37:16 01:15:37:16 
FCM: DROP FRAME 
326  MKA1     V     D    045 01:13:02:06 01:13:04:00 01:15:37:16 01:15:39:10 
M2   MKA1          -030.0                01:13:02:06 
* FROM CLIP NAME:  5/2 
* TO CLIP NAME:  COBALT MINE -LAVA PIT 
327  MKA1     V     C        01:13:00:12 01:13:00:12 01:15:39:10 01:15:39:10 
FCM: NON-DROP FRAME 
327  10704    V     D    045 04:05:11:16 04:05:14:20 01:15:39:10 01:15:42:14 
M2   MKA1          -030.0                01:13:00:12 
* FROM CLIP NAME:  COBALT MINE -LAVA PIT 
* TO CLIP NAME:  6/2  B 
328  10703    V     C        03:16:53:12 03:17:01:02 01:15:42:14 01:15:50:04 
* FROM CLIP NAME:  6/2 
329  10703    V     C        03:41:57:11 03:42:00:21 01:15:50:04 01:15:53:14 
* FROM CLIP NAME:  6H/1 
330  10703    V     C        03:17:05:03 03:17:07:05 01:15:53:14 01:15:55:16 
* FROM CLIP NAME:  6/2 
331  10703    V     C        03:42:03:06 03:42:05:00 01:15:55:16 01:15:57:10 
* FROM CLIP NAME:  6H/1 
332  10703    V     C        03:17:09:23 03:17:12:27 01:15:57:10 01:16:00:16 
* FROM CLIP NAME:  6/2 
333  10703    V     C        03:30:30:10 03:30:33:10 01:16:00:16 01:16:03:16 
* FROM CLIP NAME:  6E/4 
334  10703    V     C        03:25:10:18 03:25:12:17 01:16:03:16 01:16:05:15 
* FROM CLIP NAME:  6C/4 
335  10703    V     C        03:30:35:22 03:30:37:01 01:16:05:15 01:16:06:24 
* FROM CLIP NAME:  6E/4 
336  10703    V     C        03:42:10:12 03:42:12:11 01:16:06:24 01:16:08:23 
* FROM CLIP NAME:  6H/1 
337  10703    V     C        03:23:16:25 03:23:22:01 01:16:08:23 01:16:13:29 
* FROM CLIP NAME:  6A/2 
338  10703    V     C        03:42:15:00 03:42:16:29 01:16:13:29 01:16:15:28 
* FROM CLIP NAME:  6H/1 
339  10703    V     C        03:36:13:11 03:36:16:13 01:16:15:28 01:16:19:00 
* FROM CLIP NAME:  6E/5 
340  10703    V     C        03:25:28:05 03:25:30:29 01:16:19:00 01:16:21:24 
* FROM CLIP NAME:  6C/4 
341  10703    V     C        03:36:18:29 03:36:25:02 01:16:21:24 01:16:27:27 
* FROM CLIP NAME:  6E/5 
342  10703    V     C        03:42:31:09 03:42:32:17 01:16:27:27 01:16:29:05 
* FROM CLIP NAME:  6H/1 
343  10703    V     C        03:36:26:08 03:36:27:18 01:16:29:05 01:16:30:15 
* FROM CLIP NAME:  6E/5 
344  10703    V     C        03:25:39:12 03:25:41:04 01:16:30:15 01:16:32:07 
* FROM CLIP NAME:  6C/4 
345  10703    V     C        03:31:05:18 03:31:07:15 01:16:32:07 01:16:34:04 
* FROM CLIP NAME:  6E/4 
346  10703    V     C        03:25:46:08 03:25:47:23 01:16:34:04 01:16:35:19 
* FROM CLIP NAME:  6C/4 
347  10703    V     C        03:42:44:22 03:42:45:19 01:16:35:19 01:16:36:16 
* FROM CLIP NAME:  6H/1 
348  10703    V     C        03:36:38:08 03:36:39:28 01:16:36:16 01:16:38:06 
* FROM CLIP NAME:  6E/5 
349  10703    V     C        03:25:48:08 03:25:50:04 01:16:38:06 01:16:40:02 
* FROM CLIP NAME:  6C/4 
350  10704    V     C        04:06:27:24 04:06:33:28 01:16:40:02 01:16:46:06 
* FROM CLIP NAME:  6/2  B 
351  10703    V     C        03:31:20:26 03:31:27:20 01:16:46:06 01:16:53:00 
* FROM CLIP NAME:  6E/4 
352  10703    V     C        03:27:35:27 03:27:38:15 01:16:53:00 01:16:55:18 
* FROM CLIP NAME:  6D/2 
353  10703    V     C        03:36:58:08 03:37:02:17 01:16:55:18 01:16:59:27 
* FROM CLIP NAME:  6E/5 
354  10703    V     C        03:27:38:21 03:27:44:12 01:16:59:27 01:17:05:20 
* FROM CLIP NAME:  6D/2 
355  10703    V     C        03:37:12:09 03:37:16:03 01:17:05:20 01:17:09:14 
* FROM CLIP NAME:  6E/5 
356  10703    V     C        03:28:03:11 03:28:06:15 01:17:09:14 01:17:12:18 
* FROM CLIP NAME:  6D/2 
357  10703    V     C        03:37:19:16 03:37:23:25 01:17:12:18 01:17:16:27 
* FROM CLIP NAME:  6E/5 
358  10703    V     C        03:28:21:14 03:28:23:05 01:17:16:27 01:17:18:18 
* FROM CLIP NAME:  6D/2 
359  10703    V     C        03:37:25:09 03:37:26:23 01:17:18:18 01:17:20:02 
* FROM CLIP NAME:  6E/5 
360  10703    V     C        03:28:24:19 03:28:26:27 01:17:20:02 01:17:22:10 
* FROM CLIP NAME:  6D/2 
361  10703    V     C        03:37:37:08 03:37:43:06 01:17:22:10 01:17:28:08 
* FROM CLIP NAME:  6E/5 
362  10703    V     C        03:28:33:07 03:28:35:16 01:17:28:08 01:17:30:17 
* FROM CLIP NAME:  6D/2 
363  10703    V     C        03:32:24:23 03:32:26:10 01:17:30:17 01:17:32:04 
* FROM CLIP NAME:  6E/4 
364  10703    V     C        03:40:19:20 03:40:20:22 01:17:32:04 01:17:33:06 
* FROM CLIP NAME:  6F/2 
365  10703    V     C        03:28:47:06 03:28:50:16 01:17:33:06 01:17:36:16 
* FROM CLIP NAME:  6D/2 
366  10703    V     C        03:37:53:27 03:37:56:21 01:17:36:16 01:17:39:10 
* FROM CLIP NAME:  6E/5 
367  10703    V     C        03:28:55:10 03:28:56:10 01:17:39:10 01:17:40:10 
* FROM CLIP NAME:  6D/2 
368  10703    V     C        03:32:40:10 03:32:41:29 01:17:40:10 01:17:41:29 
* FROM CLIP NAME:  6E/4 
369  10703    V     C        03:28:59:19 03:29:01:04 01:17:41:29 01:17:43:14 
* FROM CLIP NAME:  6D/2 
370  10703    V     C        03:32:42:01 03:32:44:02 01:17:43:14 01:17:45:15 
* FROM CLIP NAME:  6E/4 
371  10703    V     C        03:29:03:05 03:29:04:22 01:17:45:15 01:17:47:02 
* FROM CLIP NAME:  6D/2 
372  10703    V     C        03:40:37:28 03:40:39:08 01:17:47:02 01:17:48:12 
* FROM CLIP NAME:  6F/2 
373  10703    V     C        03:32:47:17 03:32:52:08 01:17:48:12 01:17:53:03 
* FROM CLIP NAME:  6E/4 
374  10703    V     C        03:19:36:24 03:19:39:21 01:17:53:03 01:17:56:00 
* FROM CLIP NAME:  6/2 
375  10703    V     C        03:29:15:25 03:29:17:16 01:17:56:00 01:17:57:21 
* FROM CLIP NAME:  6D/2 
376  10703    V     C        03:33:00:06 03:33:09:23 01:17:57:21 01:18:07:10 
* FROM CLIP NAME:  6E/4 
377  10703    V     C        03:29:24:12 03:29:26:26 01:18:07:10 01:18:09:24 
* FROM CLIP NAME:  6D/2 
378  10703    V     C        03:38:25:11 03:38:28:08 01:18:09:24 01:18:12:21 
* FROM CLIP NAME:  6E/5 
379  10703    V     C        03:29:31:26 03:29:33:17 01:18:12:21 01:18:14:12 
* FROM CLIP NAME:  6D/2 
380  10703    V     C        03:38:32:10 03:38:37:23 01:18:14:12 01:18:19:25 
* FROM CLIP NAME:  6E/5 
381  10703    V     C        03:29:39:28 03:29:43:08 01:18:19:25 01:18:23:05 
* FROM CLIP NAME:  6D/2 
382  10703    V     C        03:38:44:06 03:38:45:25 01:18:23:05 01:18:24:24 
* FROM CLIP NAME:  6E/5 
383  10703    V     C        03:29:44:22 03:29:50:01 01:18:24:24 01:18:30:03 
* FROM CLIP NAME:  6D/2 
384  10703    V     C        03:38:49:10 03:38:54:08 01:18:30:03 01:18:35:01 
* FROM CLIP NAME:  6E/5 
385  10704    V     C        04:08:48:00 04:08:50:22 01:18:35:01 01:18:37:23 
* FROM CLIP NAME:  6/2  B 
386  10703    V     C        03:41:33:16 03:41:39:20 01:18:37:23 01:18:43:27 
* FROM CLIP NAME:  6G/1 
387  10703    V     C        03:15:26:21 03:15:30:24 01:18:43:27 01:18:48:00 
* FROM CLIP NAME:  6/1 
388  10703    V     C        03:33:55:26 03:33:57:14 01:18:48:00 01:18:49:18 
* FROM CLIP NAME:  6E/4 
389  10703    V     C        03:26:22:10 03:26:29:02 01:18:49:18 01:18:56:10 
* FROM CLIP NAME:  6C/4 
390  10703    V     C        03:34:34:13 03:34:39:11 01:18:56:10 01:19:01:10 
* FROM CLIP NAME:  6E/4 
391  10703    V     C        03:26:34:12 03:26:37:15 01:19:01:10 01:19:04:13 
* PLEASE BLOW UP 
* FROM CLIP NAME:  6C/4 
392  10703    V     C        03:34:41:05 03:34:43:15 01:19:04:13 01:19:06:23 
* FX 6-1  PORTAL BEHIND JOLA 
* FROM CLIP NAME:  6E/4 
393  10704    V     C        04:12:20:24 04:12:24:10 01:19:06:23 01:19:10:09 
* FROM CLIP NAME:  6B/1  B 
394  10703    V     C        03:39:33:27 03:39:36:16 01:19:10:09 01:19:12:28 
* FROM CLIP NAME:  6E/5 
395  10703    V     C        03:26:51:06 03:26:55:23 01:19:12:28 01:19:17:15 
* FROM CLIP NAME:  6C/4 
396  10703    V     C        03:39:38:19 03:39:45:11 01:19:17:15 01:19:24:07 
* FROM CLIP NAME:  6E/5 
397  10703    V     C        03:27:10:17 03:27:12:22 01:19:24:07 01:19:26:12 
* FROM CLIP NAME:  6C/4 
398  10703    V     C        03:39:51:12 03:39:54:08 01:19:26:12 01:19:29:08 
* FROM CLIP NAME:  6E/5 
399  10703    V     C        03:39:54:08 03:39:54:08 01:19:29:08 01:19:29:08 
399  10701    V     D    045 01:06:42:01 01:06:56:29 01:19:29:08 01:19:44:06 
* FROM CLIP NAME:  6E/5 
* TO CLIP NAME:  7/2 
400  10701    V     C        01:09:06:16 01:09:11:06 01:19:44:06 01:19:48:26 
* FROM CLIP NAME:  7A/1 
401  10701    V     C        01:18:35:15 01:18:38:03 01:19:48:26 01:19:51:14 
* FROM CLIP NAME:  7B/2 
402  10701    V     C        01:09:14:17 01:09:15:21 01:19:51:14 01:19:52:18 
* FROM CLIP NAME:  7A/1 
403  10701    V     C        01:18:39:14 01:18:41:16 01:19:52:18 01:19:54:20 
* FROM CLIP NAME:  7B/2 
404  10701    V     C        01:09:20:05 01:09:21:14 01:19:54:20 01:19:55:29 
* FROM CLIP NAME:  7A/1 
405  10701    V     C        01:18:43:16 01:18:46:05 01:19:55:29 01:19:58:18 
* FROM CLIP NAME:  7B/2 
406  10701    V     C        01:09:25:01 01:09:28:06 01:19:58:18 01:20:01:23 
* FROM CLIP NAME:  7A/1 
407  10701    V     C        01:18:49:10 01:18:52:22 01:20:01:23 01:20:05:05 
* FROM CLIP NAME:  7B/2 
408  10701    V     C        01:09:32:09 01:09:35:00 01:20:05:05 01:20:07:26 
* FROM CLIP NAME:  7A/1 
409  10701    V     C        01:20:15:13 01:20:18:00 01:20:07:26 01:20:10:13 
* FROM CLIP NAME:  7D/1 
410  10701    V     C        01:19:44:08 01:19:47:05 01:20:10:13 01:20:13:10 
* FROM CLIP NAME:  7C/5 
411  10701    V     C        01:20:20:06 01:20:22:16 01:20:13:10 01:20:15:20 
* FROM CLIP NAME:  7D/1 
412  10701    V     C        01:19:48:12 01:20:00:08 01:20:15:20 01:20:27:16 
* FROM CLIP NAME:  7C/5 
FCM: DROP FRAME 
413  MTREEL   V     C        01:02:49:02 01:02:50:15 01:20:27:16 01:20:28:29 
* FROM CLIP NAME:  FIRE  LOGO 
FCM: NON-DROP FRAME 
414  2ND15A   V     C        15:29:08:07 15:29:10:28 01:20:28:29 01:20:31:20 
* COLOR BLUISH BLACK & WHITE 
* FROM CLIP NAME:  X2L/SERIES 
415  2ND15    V     C        15:10:38:19 15:10:39:01 01:20:31:20 01:20:32:02 
* COLOR BLUISH BLACK & WHITE 
* FROM CLIP NAME:  X2J/SERIES 
416  2ND16    V     C        16:05:41:09 16:05:43:11 01:20:32:02 01:20:34:04 
* COLOR BLUISH BLACK & WHITE 
* FROM CLIP NAME:  X2U/SERIES 
417  2ND15    V     C        15:10:29:18 15:10:30:18 01:20:34:04 01:20:35:04 
* COLOR BLUISH BLACK & WHITE 
* FROM CLIP NAME:  X2J/SERIES 
418  2ND15A   V     C        15:24:24:16 15:24:25:12 01:20:35:04 01:20:36:00 
* COLOR BLUISH BLACK & WHITE 
* FROM CLIP NAME:  X2L/SERIES 
419  2ND15A   V     C        15:24:25:12 15:24:25:12 01:20:36:00 01:20:36:00 
FCM: DROP FRAME 
419     BL    V     D    010 00:00:00:00 00:00:00:10 01:20:36:00 01:20:36:10 
* COLOR BLUISH BLACK & WHITE 
* FROM CLIP NAME:  X2L/SERIES 
420     AX    V     C        00:00:07:15 00:00:12:15 01:20:36:10 01:20:41:10 
* FROM CLIP NAME:  GOOD #1 
FCM: NON-DROP FRAME 
421  10701    V     C        01:22:38:12 01:23:00:24 01:20:41:10 01:21:03:24 
* FROM CLIP NAME:  8C/3 
422  10701    V     C        01:13:37:03 01:13:43:18 01:21:03:24 01:21:10:09 
* FROM CLIP NAME:  8A/1 
423  10701    V     C        01:23:07:13 01:23:11:15 01:21:10:09 01:21:14:11 
* FROM CLIP NAME:  8C/3 
424  10701    V     C        01:11:58:20 01:12:02:08 01:21:14:11 01:21:17:29 
* FROM CLIP NAME:  8/5 
425  10701    V     C        01:13:52:12 01:13:57:05 01:21:17:29 01:21:22:22 
* FROM CLIP NAME:  8A/1 
426  10701    V     C        01:10:07:21 01:10:10:22 01:21:22:22 01:21:25:23 
* FROM CLIP NAME:  8/4 
427  10701    V     C        01:15:54:08 01:15:56:19 01:21:25:23 01:21:28:04 
* FROM CLIP NAME:  8A/2 
428  10701    V     C        01:10:13:24 01:10:16:10 01:21:28:04 01:21:30:20 
* FROM CLIP NAME:  8/4 
429  10701    V     C        01:16:00:04 01:16:04:03 01:21:30:20 01:21:34:19 
* FROM CLIP NAME:  8A/2 
430  10701    V     C        01:10:20:18 01:10:25:20 01:21:34:19 01:21:39:21 
* FROM CLIP NAME:  8/4 
431  10701    V     C        01:16:09:22 01:16:16:05 01:21:39:21 01:21:46:04 
* FROM CLIP NAME:  8A/2 
432  10701    V     C        01:12:35:18 01:12:40:28 01:21:46:04 01:21:51:14 
* FROM CLIP NAME:  8/5 
433  10701    V     C        01:16:29:11 01:16:35:02 01:21:51:14 01:21:57:05 
* FROM CLIP NAME:  8A/2 
434  10701    V     C        01:12:44:01 01:12:49:09 01:21:57:05 01:22:02:15 
* FROM CLIP NAME:  8/5 
435  10701    V     C        01:16:36:13 01:16:40:15 01:22:02:15 01:22:06:17 
* FROM CLIP NAME:  8A/2 
436  10701    V     C        01:12:52:20 01:12:57:18 01:22:06:17 01:22:11:15 
* FROM CLIP NAME:  8/5 
437  10701    V     C        01:16:55:12 01:16:58:05 01:22:11:15 01:22:14:08 
* FROM CLIP NAME:  8A/2 
438  10701    V     C        01:11:08:02 01:11:16:20 01:22:14:08 01:22:22:26 
* FROM CLIP NAME:  8/4 
439  10701    V     C        01:15:07:15 01:15:13:03 01:22:22:26 01:22:28:14 
* FROM CLIP NAME:  8A/1 
440  10701    V     C        01:11:20:16 01:11:22:25 01:22:28:14 01:22:30:23 
* FROM CLIP NAME:  8/4 
441  10701    V     C        01:22:10:20 01:22:18:12 01:22:30:23 01:22:38:15 
* FROM CLIP NAME:  8B/2 
442  10701    V     C        01:11:27:08 01:11:28:19 01:22:38:15 01:22:39:26 
* FROM CLIP NAME:  8/4 
443  10701    V     C        01:11:28:19 01:11:28:19 01:22:39:26 01:22:39:26 
443  2ND      V     D    045 01:09:12:01 01:09:16:02 01:22:39:26 01:22:43:27 
* FROM CLIP NAME:  8/4 
* TO CLIP NAME:  CANDLES - X13/1 
444  2ND      V     C        01:09:16:02 01:09:16:02 01:22:43:27 01:22:43:27 
444  10709    V     D    045 09:05:14:06 09:05:30:29 01:22:43:27 01:23:00:22 
* FROM CLIP NAME:  CANDLES - X13/1 
* TO CLIP NAME:  9/1 
FCM: DROP FRAME 
445     AX    V     C        00:00:23:29 00:00:24:06 01:23:00:22 01:23:00:29 
* WHITE FLASH 
* FROM CLIP NAME:  WHITE FRAME 
FCM: NON-DROP FRAME 
446  10709    V     C        09:19:29:06 09:19:32:02 01:23:00:29 01:23:03:25 
* FROM CLIP NAME:  9B/2 
FCM: DROP FRAME 
447     AX    V     C        00:00:23:29 00:00:24:06 01:23:03:25 01:23:04:02 
* WHITE FLASH 
* FROM CLIP NAME:  WHITE FRAME 
FCM: NON-DROP FRAME 
448  10709    V     C        09:05:53:27 09:05:59:10 01:23:04:02 01:23:09:15 
* FROM CLIP NAME:  9A/1 
449  10709    V     C        09:07:05:00 09:07:05:24 01:23:09:15 01:23:10:09 
* FROM CLIP NAME:  9A/3 
FCM: DROP FRAME 
450     AX    V     C        00:00:23:29 00:00:24:06 01:23:10:09 01:23:10:16 
* WHITE FLASH 
* FROM CLIP NAME:  WHITE FRAME 
FCM: NON-DROP FRAME 
451  10709    V     C        09:23:53:12 09:23:56:06 01:23:10:16 01:23:13:10 
* FROM CLIP NAME:  9C/1 D 
FCM: DROP FRAME 
452     AX    V     C        00:00:23:29 00:00:24:06 01:23:13:10 01:23:13:17 
* WHITE FLASH 
* FROM CLIP NAME:  WHITE FRAME 
FCM: NON-DROP FRAME 
453  10709    V     C        09:25:28:29 09:25:30:05 01:23:13:17 01:23:14:23 
* FROM CLIP NAME:  9C/1 D 
FCM: DROP FRAME 
454     AX    V     C        00:00:23:29 00:00:24:06 01:23:14:23 01:23:15:00 
* WHITE FLASH 
* FROM CLIP NAME:  WHITE FRAME 
FCM: NON-DROP FRAME 
455  10709    V     C        09:07:09:29 09:07:11:28 01:23:15:00 01:23:16:29 
M2   10709          015.0                09:07:09:29 
* FROM CLIP NAME:  9A/3 
FCM: DROP FRAME 
456     AX    V     C        00:00:23:29 00:00:24:06 01:23:16:29 01:23:17:06 
* WHITE FLASH 
* FROM CLIP NAME:  WHITE FRAME 
FCM: NON-DROP FRAME 
457  10709    V     C        09:25:31:12 09:25:34:14 01:23:17:06 01:23:20:08 
* FROM CLIP NAME:  9C/1 D 
FCM: DROP FRAME 
458     AX    V     C        00:00:23:29 00:00:24:06 01:23:20:08 01:23:20:15 
* WHITE FLASH 
* FROM CLIP NAME:  WHITE FRAME 
FCM: NON-DROP FRAME 
459  10701    V     C        01:23:23:05 01:24:22:06 01:23:20:15 01:24:19:18 
* FROM CLIP NAME:  10/6 
460  10701    V     C        01:31:35:11 01:31:39:19 01:24:19:18 01:24:23:26 
* FROM CLIP NAME:  10C/2 
461  10701    V     C        01:27:38:29 01:27:44:25 01:24:23:26 01:24:29:22 
* FROM CLIP NAME:  10A/1 
462  10701    V     C        01:31:48:27 01:31:49:29 01:24:29:22 01:24:30:24 
* FROM CLIP NAME:  10C/2 
463  10701    V     C        01:27:44:27 01:27:47:07 01:24:30:24 01:24:33:04 
* FROM CLIP NAME:  10A/1 
464  10701    V     C        01:31:52:09 01:31:54:25 01:24:33:04 01:24:35:20 
* FROM CLIP NAME:  10C/2 
465  10701    V     C        01:29:39:07 01:29:41:09 01:24:35:20 01:24:37:22 
* FROM CLIP NAME:  10A/3 
466  10701    V     C        01:31:56:17 01:31:58:29 01:24:37:22 01:24:40:04 
* FROM CLIP NAME:  10C/2 
467  10701    V     C        01:27:53:27 01:27:56:01 01:24:40:04 01:24:42:08 
* FROM CLIP NAME:  10A/1 
468  10701    V     C        01:32:02:10 01:32:06:16 01:24:42:08 01:24:46:14 
* FROM CLIP NAME:  10C/2 
469  10701    V     C        01:30:34:11 01:30:40:11 01:24:46:14 01:24:52:14 
* FROM CLIP NAME:  10B/3 
470  10701    V     C        01:28:06:27 01:28:09:07 01:24:52:14 01:24:54:24 
* FROM CLIP NAME:  10A/1 
471  10701    V     C        01:30:42:11 01:30:45:19 01:24:54:24 01:24:58:02 
* FROM CLIP NAME:  10B/3 
472  10701    V     C        01:28:13:16 01:28:16:12 01:24:58:02 01:25:01:00 
* FROM CLIP NAME:  10A/1 
473  10701    V     C        01:32:27:12 01:32:28:26 01:25:01:00 01:25:02:14 
* FROM CLIP NAME:  10C/2 
474  10701    V     C        01:30:56:19 01:30:58:20 01:25:02:14 01:25:04:15 
* FROM CLIP NAME:  10B/3 
475  10701    V     C        01:32:29:19 01:32:31:06 01:25:04:15 01:25:06:02 
* FROM CLIP NAME:  10C/2 
FCM: DROP FRAME 
476     AX    V     C        00:00:28:14 00:00:31:15 01:25:06:02 01:25:09:03 
* FROM CLIP NAME:  BD LAIR 
FCM: NON-DROP FRAME 
477  10708    V     C        08:12:39:14 08:12:52:12 01:25:09:03 01:25:22:01 
* FROM CLIP NAME:  11B/6 
478  10708    V     C        08:09:16:18 08:09:19:16 01:25:22:01 01:25:24:29 
* FROM CLIP NAME:  11/1 
479  10708    V     C        08:12:55:23 08:12:57:18 01:25:24:29 01:25:26:24 
* FROM CLIP NAME:  11B/6 
480  10708    V     C        08:09:21:11 08:09:24:27 01:25:26:24 01:25:30:10 
* FROM CLIP NAME:  11/1 
481  10708    V     C        08:14:03:12 08:14:05:23 01:25:30:10 01:25:32:21 
* FROM CLIP NAME:  11C/4 
482  10708    V     C        08:09:29:03 08:09:31:28 01:25:32:21 01:25:35:16 
* FROM CLIP NAME:  11/1 
483  10708    V     C        08:12:06:11 08:12:08:07 01:25:35:16 01:25:37:12 
* FROM CLIP NAME:  11B/3 
484  10708    V     C        08:10:28:27 08:10:34:28 01:25:37:12 01:25:43:13 
* FROM CLIP NAME:  11A/1 
485  10708    V     C        08:32:23:29 08:32:27:25 01:25:43:13 01:25:47:09 
* FROM CLIP NAME:  11D/2 
486  10708    V     C        08:10:37:08 08:10:38:22 01:25:47:09 01:25:48:23 
* FROM CLIP NAME:  11A/1 
487  10708    V     C        08:32:30:09 08:32:44:02 01:25:48:23 01:26:02:18 
* FROM CLIP NAME:  11D/2 
488  10708    V     C        08:10:47:25 08:10:49:14 01:26:02:18 01:26:04:07 
* FROM CLIP NAME:  11A/1 
489  10708    V     C        08:35:16:13 08:35:24:15 01:26:04:07 01:26:12:09 
* FROM CLIP NAME:  11D/5 
490  10708    V     C        08:11:19:21 08:11:21:12 01:26:12:09 01:26:14:00 
* FROM CLIP NAME:  11A/4 
491  10708    V     C        08:35:24:21 08:35:26:25 01:26:14:00 01:26:16:04 
* FROM CLIP NAME:  11D/5 
FCM: DROP FRAME 
492  MTREEL   V     C        01:04:43:02 01:04:46:02 01:26:16:04 01:26:19:04 
* FROM CLIP NAME:  ZHU ZHIN DAY 
FCM: NON-DROP FRAME 
493  10707    V     C        07:02:13:07 07:02:18:06 01:26:19:04 01:26:24:03 
* FROM CLIP NAME:  12B/1 
494  10707    V     C        07:01:23:28 07:01:27:28 01:26:24:03 01:26:28:03 
* FROM CLIP NAME:  12A/2 
495  10707    V     C        07:03:23:19 07:03:27:04 01:26:28:03 01:26:31:18 
* FROM CLIP NAME:  12C/1 
496  10707    V     C        07:01:31:27 07:01:35:20 01:26:31:18 01:26:35:11 
* FROM CLIP NAME:  12A/2 
497  10707    V     C        07:04:36:12 07:04:41:27 01:26:35:11 01:26:40:26 
* FROM CLIP NAME:  12C/4 
498  10707    V     C        07:01:39:21 07:01:42:01 01:26:40:26 01:26:43:06 
* FROM CLIP NAME:  12A/2 
499  10707    V     C        07:04:45:13 07:04:50:02 01:26:43:06 01:26:47:25 
* FROM CLIP NAME:  12C/4 
500  10707    V     C        07:01:46:10 07:01:48:00 01:26:47:25 01:26:49:15 
* FROM CLIP NAME:  12A/2 
501  10707    V     C        07:02:43:16 07:02:48:14 01:26:49:15 01:26:54:13 
* FROM CLIP NAME:  12B/1 
502  10707    V     C        07:01:51:08 07:01:54:21 01:26:54:13 01:26:57:26 
* FROM CLIP NAME:  12A/2 
503  10707    V     C        07:02:53:18 07:02:55:12 01:26:57:26 01:26:59:20 
* FROM CLIP NAME:  12B/1 
504  10707    V     C        07:00:51:11 07:00:55:17 01:26:59:20 01:27:03:28 
* FROM CLIP NAME:  12/4 
505  10707    V     C        07:19:15:24 07:19:35:21 01:27:03:28 01:27:23:25 
* FROM CLIP NAME:  12D/5 
506  10707    V     C        07:19:35:21 07:19:35:21 01:27:23:25 01:27:23:25 
506  10705    V     D    045 05:57:38:02 05:57:43:23 01:27:23:25 01:27:29:16 
* FROM CLIP NAME:  12D/5 
* TO CLIP NAME:  13/2 
507  10706    V     C        06:05:36:24 06:05:39:07 01:27:29:16 01:27:31:29 
* FROM CLIP NAME:  13C/5 
508  10705    V     C        05:57:46:17 05:57:50:27 01:27:31:29 01:27:36:09 
* FROM CLIP NAME:  13/2 
509  10706    V     C        06:04:03:08 06:04:06:12 01:27:36:09 01:27:39:13 
* FROM CLIP NAME:  13C/4 
510  10706    V     C        06:00:13:01 06:00:16:13 01:27:39:13 01:27:42:25 
* FROM CLIP NAME:  13A/1 
511  10706    V     C        06:07:36:17 06:07:41:23 01:27:42:25 01:27:48:01 
* FROM CLIP NAME:  13D/1 
512  10706    V     C        06:00:21:11 06:00:23:13 01:27:48:01 01:27:50:03 
* FROM CLIP NAME:  13A/1 
513  10706    V     C        06:07:41:24 06:07:47:10 01:27:50:03 01:27:55:19 
* FROM CLIP NAME:  13D/1 
514  10706    V     C        06:00:28:08 06:00:32:01 01:27:55:19 01:27:59:12 
* FROM CLIP NAME:  13A/1 
515  10706    V     C        06:07:52:02 06:07:54:19 01:27:59:12 01:28:02:01 
* FROM CLIP NAME:  13D/1 
516  10706    V     C        06:00:25:15 06:00:27:15 01:28:02:01 01:28:04:01 
* FROM CLIP NAME:  13A/1 
517  10706    V     C        06:07:57:03 06:07:59:20 01:28:04:01 01:28:06:18 
* FROM CLIP NAME:  13D/1 
518  10706    V     C        06:00:32:03 06:00:34:18 01:28:06:18 01:28:09:03 
* FROM CLIP NAME:  13A/1 
519  10706    V     C        06:08:05:28 06:08:11:08 01:28:09:03 01:28:14:13 
* FROM CLIP NAME:  13D/1 
520  10705    V     C        05:58:33:08 05:58:35:02 01:28:14:13 01:28:16:07 
* FROM CLIP NAME:  13/2 
521  10706    V     C        06:06:24:25 06:06:31:12 01:28:16:07 01:28:22:24 
* FROM CLIP NAME:  13C/5 
522  10706    V     C        06:03:13:07 06:03:14:29 01:28:22:24 01:28:24:16 
* FROM CLIP NAME:  13A/2 PU 
523  10706    V     C        06:08:29:26 06:08:34:28 01:28:24:16 01:28:29:18 
* FROM CLIP NAME:  13D/1 
524  10706    V     C        06:03:23:14 06:03:27:15 01:28:29:18 01:28:33:19 
* FROM CLIP NAME:  13A/2 PU 
525  10706    V     C        06:06:47:08 06:06:48:15 01:28:33:19 01:28:34:26 
* FROM CLIP NAME:  13C/5 
526  10706    V     C        06:03:29:21 06:03:31:08 01:28:34:26 01:28:36:13 
* FROM CLIP NAME:  13A/2 PU 
527  10706    V     C        06:10:06:11 06:10:08:00 01:28:36:13 01:28:38:02 
* FROM CLIP NAME:  13E/2 
528  10706    V     C        06:03:31:23 06:03:33:10 01:28:38:02 01:28:39:19 
* FROM CLIP NAME:  13A/2 PU 
529  10706    V     C        06:05:16:09 06:05:16:26 01:28:39:19 01:28:40:06 
* FROM CLIP NAME:  13C/4 
530  10706    V     C        06:10:41:02 06:10:42:00 01:28:40:06 01:28:41:04 
* FROM CLIP NAME:  13F/1 
531  10706    V     C        06:03:40:06 06:03:41:09 01:28:41:04 01:28:42:07 
* FROM CLIP NAME:  13A/2 PU 
532  2ND15A   V     C        15:43:10:20 15:43:13:26 01:28:42:07 01:28:45:13 
* FROM CLIP NAME:  X13/SERIES 
533  2ND17    V     C        17:04:13:00 17:04:14:05 01:28:45:13 01:28:46:18 
* FROM CLIP NAME:  X13AK/SERIES C 
534  2ND17    V     C        17:23:06:18 17:23:06:24 01:28:46:18 01:28:46:24 
* FROM CLIP NAME:  X13AJ/SERIES 
535  2ND17    V     C        17:20:17:16 17:20:17:27 01:28:46:24 01:28:47:05 
* FROM CLIP NAME:  X13Z/SERIES 
536  2ND16    V     C        16:13:40:27 16:13:42:06 01:28:47:05 01:28:48:14 
* FROM CLIP NAME:  X2AN/SERIES 
537  2ND17    V     C        17:04:14:06 17:04:15:19 01:28:48:14 01:28:49:27 
* FROM CLIP NAME:  X13AK/SERIES C 
538  2ND16    V     C        16:14:17:26 16:14:18:17 01:28:49:27 01:28:50:18 
* FROM CLIP NAME:  X2AN/SERIES 
539  2ND17    V     C        17:23:52:14 17:23:52:23 01:28:50:18 01:28:50:27 
* FROM CLIP NAME:  X13AJ/SERIES 
540  2ND16    V     C        16:14:18:12 16:14:18:28 01:28:50:27 01:28:51:13 
* FROM CLIP NAME:  X2AN/SERIES 
541  2ND17    V     C        17:20:55:25 17:20:56:08 01:28:51:13 01:28:51:26 
* FROM CLIP NAME:  X13Z/SERIES 
542  2ND15A   V     C        15:44:31:01 15:44:31:12 01:28:51:26 01:28:52:07 
* FROM CLIP NAME:  X13/SERIES 
543  2ND16    V     C        16:15:09:20 16:15:11:00 01:28:52:07 01:28:53:17 
* FROM CLIP NAME:  X2AN/SERIES 
544  2ND17    V     C        17:21:21:11 17:21:22:23 01:28:53:17 01:28:54:29 
* FROM CLIP NAME:  X13Z/SERIES 
545  2ND17    V     C        17:23:00:23 17:23:01:11 01:28:54:29 01:28:55:17 
* FROM CLIP NAME:  X13AJ/SERIES 
546  2ND15A   V     C        15:45:29:21 15:45:32:13 01:28:55:17 01:28:58:09 
* FROM CLIP NAME:  X13/SERIES 
547  2ND17    V     C        17:23:39:15 17:23:40:05 01:28:58:09 01:28:58:29 
* FROM CLIP NAME:  X13AJ/SERIES 
548  2ND17    V     C        17:22:43:02 17:22:44:15 01:28:58:29 01:29:00:14 
* FROM CLIP NAME:  X13AJ/SERIES 
549  2ND15A   V     C        15:46:14:12 15:46:16:02 01:29:00:14 01:29:02:04 
* FROM CLIP NAME:  X13/SERIES 
550  2ND17    V     C        17:23:22:08 17:23:22:24 01:29:02:04 01:29:02:20 
* FROM CLIP NAME:  X13AJ/SERIES 
551  2ND16    V     C        16:16:39:19 16:16:40:20 01:29:02:20 01:29:03:21 
* FROM CLIP NAME:  X13D/SERIES 
552  2ND17    V     C        17:19:54:07 17:19:55:00 01:29:03:21 01:29:04:14 
* FROM CLIP NAME:  X13Z/SERIES 
553  2ND15A   V     C        15:48:58:17 15:49:00:29 01:29:04:14 01:29:06:26 
* FROM CLIP NAME:  X13/SERIES 
554  2ND16    V     C        16:17:35:26 16:17:36:17 01:29:06:26 01:29:07:17 
* FROM CLIP NAME:  X13D/SERIES 
555  2ND17    V     C        17:24:12:18 17:24:14:11 01:29:07:17 01:29:09:10 
* FROM CLIP NAME:  X13AJ/SERIES 
556  2ND16    V     C        16:17:37:02 16:17:37:25 01:29:09:10 01:29:10:03 
* FROM CLIP NAME:  X13D/SERIES 
557  2ND17    V     C        17:06:25:19 17:06:26:26 01:29:10:03 01:29:11:10 
* FROM CLIP NAME:  X13AK/SERIES C 
558  2ND16    V     C        16:17:53:17 16:17:54:21 01:29:11:10 01:29:12:14 
* FROM CLIP NAME:  X13D/SERIES 
559  2ND17    V     C        17:07:09:16 17:07:10:05 01:29:12:14 01:29:13:03 
* FROM CLIP NAME:  X13AK/SERIES C 
560  2ND15A   V     C        15:50:02:14 15:50:03:05 01:29:13:03 01:29:13:24 
* FROM CLIP NAME:  X13F/SERIES 
561  2ND16    V     C        16:18:56:11 16:18:59:16 01:29:13:24 01:29:16:29 
* FROM CLIP NAME:  X13D/SERIES 
562  2ND17    V     C        17:06:49:10 17:06:51:01 01:29:16:29 01:29:18:20 
* FROM CLIP NAME:  X13AK/SERIES C 
563  2ND15A   V     C        15:51:09:02 15:51:10:08 01:29:18:20 01:29:19:26 
* FROM CLIP NAME:  X13F/SERIES 
564  2ND17    V     C        17:24:32:20 17:24:33:22 01:29:19:26 01:29:20:28 
* FROM CLIP NAME:  X13AJ/SERIES 
565  2ND17    V     C        17:19:34:08 17:19:34:23 01:29:20:28 01:29:21:13 
* FROM CLIP NAME:  X13Z/SERIES 
566  2ND17    V     C        17:24:33:27 17:24:35:09 01:29:21:13 01:29:22:25 
* FROM CLIP NAME:  X13AJ/SERIES 
567  2ND16    V     C        16:19:35:21 16:19:38:10 01:29:22:25 01:29:25:14 
* FROM CLIP NAME:  X13J/SERIES 
568  2ND17    V     C        17:25:08:23 17:25:09:18 01:29:25:14 01:29:26:09 
* FROM CLIP NAME:  X13AJ/SERIES 
569  2ND16    V     C        16:20:51:21 16:20:52:27 01:29:26:09 01:29:27:15 
* FROM CLIP NAME:  X13J/SERIES 
570  2ND17    V     C        17:25:11:04 17:25:11:22 01:29:27:15 01:29:28:03 
* FROM CLIP NAME:  X13AJ/SERIES 
571  2ND16    V     C        16:20:18:07 16:20:18:28 01:29:28:03 01:29:28:24 
* FROM CLIP NAME:  X13J/SERIES 
572  2ND16    V     C        16:21:02:28 16:21:03:28 01:29:28:24 01:29:29:24 
* FROM CLIP NAME:  X13J/SERIES 
573  2ND17    V     C        17:19:22:01 17:19:22:23 01:29:29:24 01:29:30:16 
* FROM CLIP NAME:  X13Z/SERIES 
574  2ND15A   V     C        15:54:41:24 15:54:43:21 01:29:30:16 01:29:32:13 
* FROM CLIP NAME:  X13F/SERIES 
575  2ND16    V     C        16:21:13:05 16:21:14:00 01:29:32:13 01:29:33:08 
* FROM CLIP NAME:  X13J/SERIES 
576  2ND15A   V     C        15:55:05:07 15:55:06:12 01:29:33:08 01:29:34:13 
* FROM CLIP NAME:  X13F/SERIES 
577  2ND17    V     C        17:22:20:05 17:22:20:19 01:29:34:13 01:29:34:27 
* FROM CLIP NAME:  X13AJ/SERIES 
578  2ND15A   V     C        15:55:07:07 15:55:07:18 01:29:34:27 01:29:35:08 
* FROM CLIP NAME:  X13F/SERIES 
579  2ND17    V     C        17:20:39:09 17:20:39:26 01:29:35:08 01:29:35:25 
* FROM CLIP NAME:  X13Z/SERIES 
580  2ND16    V     C        16:21:26:06 16:21:28:02 01:29:35:25 01:29:37:21 
M2   2ND16          015.0                16:21:26:06 
* FROM CLIP NAME:  X13J/SERIES 
581  2ND15A   V     C        15:55:48:25 15:55:49:27 01:29:37:21 01:29:38:23 
* FROM CLIP NAME:  X13F/SERIES 
582  2ND17    V     C        17:18:57:09 17:18:57:15 01:29:38:23 01:29:38:29 
* FROM CLIP NAME:  X13Z/SERIES 
583  2ND17    V     C        17:18:57:23 17:18:57:27 01:29:38:29 01:29:39:03 
* FROM CLIP NAME:  X13Z/SERIES 
584  2ND16    V     C        16:21:59:19 16:22:00:27 01:29:39:03 01:29:40:11 
* FROM CLIP NAME:  X13J/SERIES 
585  2ND17    V     C        17:00:14:22 17:00:16:00 01:29:40:11 01:29:41:19 
* FROM CLIP NAME:  X13S/SERIES C 
586  2ND17    V     C        17:14:19:12 17:14:22:02 01:29:41:19 01:29:44:09 
* FROM CLIP NAME:  X13S/SERIES 
587  2ND17    V     C        17:20:45:29 17:20:46:16 01:29:44:09 01:29:44:26 
* FROM CLIP NAME:  X13Z/SERIES 
588  2ND17    V     C        17:00:48:03 17:00:49:08 01:29:44:26 01:29:46:01 
* FROM CLIP NAME:  X13S/SERIES C 
589  2ND17    V     C        17:07:37:22 17:07:39:16 01:29:46:01 01:29:47:25 
* FROM CLIP NAME:  X13AK/SERIES C 
590  2ND17    V     C        17:00:50:25 17:00:53:20 01:29:47:25 01:29:50:20 
* FROM CLIP NAME:  X13S/SERIES C 
591  2ND17    V     C        17:26:46:10 17:26:47:25 01:29:50:20 01:29:52:05 
* FROM CLIP NAME:  X13AW/SERIES 
592  2ND17    V     C        17:01:56:29 17:01:59:13 01:29:52:05 01:29:54:19 
* FROM CLIP NAME:  X13S/SERIES C 
593  2ND17    V     C        17:05:23:14 17:05:23:26 01:29:54:19 01:29:55:01 
* FROM CLIP NAME:  X13AK/SERIES C 
594  2ND17    V     C        17:28:07:17 17:28:08:06 01:29:55:01 01:29:55:20 
* FROM CLIP NAME:  X13AW/SERIES 
595  2ND17    V     C        17:05:28:00 17:05:28:11 01:29:55:20 01:29:56:01 
* FROM CLIP NAME:  X13AK/SERIES C 
596  2ND17    V     C        17:02:26:21 17:02:28:18 01:29:56:01 01:29:57:28 
* FROM CLIP NAME:  X13S/SERIES C 
597  2ND17    V     C        17:18:39:03 17:18:39:15 01:29:57:28 01:29:58:10 
* FROM CLIP NAME:  X13Z/SERIES 
598  2ND17    V     C        17:02:28:23 17:02:30:12 01:29:58:10 01:29:59:29 
* FROM CLIP NAME:  X13S/SERIES C 
599  2ND17    V     C        17:17:49:27 17:17:50:26 01:29:59:29 01:30:00:28 
* FROM CLIP NAME:  X13S/SERIES 
600  2ND17    V     C        17:18:21:10 17:18:22:07 01:30:00:28 01:30:01:25 
* FROM CLIP NAME:  X13Z/SERIES 
601  2ND17    V     C        17:03:41:21 17:03:43:22 01:30:01:25 01:30:03:26 
* FROM CLIP NAME:  X13S/SERIES C 
602  2ND17    V     C        17:26:58:27 17:27:00:12 01:30:03:26 01:30:05:11 
* FROM CLIP NAME:  X13AW/SERIES 
603  10706    V     C        06:11:21:26 06:11:23:05 01:30:05:11 01:30:06:20 
* FROM CLIP NAME:  13G/2 
604  2ND17    V     C        17:27:02:01 17:27:03:02 01:30:06:20 01:30:07:21 
* FROM CLIP NAME:  X13AW/SERIES 
605  10706    V     C        06:10:57:25 06:10:59:03 01:30:07:21 01:30:08:29 
* FROM CLIP NAME:  13G/1 
606  10706    V     C        06:16:48:18 06:16:49:27 01:30:08:29 01:30:10:08 
* FROM CLIP NAME:  13B/1 
FCM: DROP FRAME 
607     AX    V     C        00:00:23:29 00:00:24:03 01:30:10:08 01:30:10:12 
* FROM CLIP NAME:  BLACK 
608  MTREEL   V     C        01:02:49:02 01:02:50:15 01:30:10:12 01:30:11:25 
* FROM CLIP NAME:  FIRE  LOGO 
FCM: NON-DROP FRAME 
609  2ND16    V     C        16:17:53:22 16:17:54:21 01:30:11:25 01:30:12:24 
* COLOR BLUISH BLACK & WHITE 
* FROM CLIP NAME:  X13D/SERIES 
610  2ND17    V     C        17:07:09:16 17:07:10:05 01:30:12:24 01:30:13:13 
* COLOR BLUISH BLACK & WHITE 
* FROM CLIP NAME:  X13AK/SERIES C 
611  2ND15A   V     C        15:50:02:14 15:50:03:05 01:30:13:13 01:30:14:04 
* COLOR BLUISH BLACK & WHITE 
* FROM CLIP NAME:  X13F/SERIES 
612  2ND16    V     C        16:18:56:11 16:18:59:16 01:30:14:04 01:30:17:09 
* COLOR BLUISH BLACK & WHITE 
* FROM CLIP NAME:  X13D/SERIES 
613  2ND17    V     C        17:06:49:20 17:06:50:23 01:30:17:09 01:30:18:12 
* COLOR BLUISH BLACK & WHITE 
* FROM CLIP NAME:  X13AK/SERIES C 
614  2ND17    V     C        17:06:50:23 17:06:50:23 01:30:18:12 01:30:18:12 
FCM: DROP FRAME 
614     BL    V     D    010 00:00:00:00 00:00:00:10 01:30:18:12 01:30:18:22 
* COLOR BLUISH BLACK & WHITE 
* FROM CLIP NAME:  X13AK/SERIES C 
615     AX    V     C        00:00:23:29 00:00:28:29 01:30:18:22 01:30:23:22 
* FROM CLIP NAME:  GOOD #2 
616     BL    V     C        00:00:00:00 00:00:00:00 01:30:23:22 01:30:23:22 
FCM: NON-DROP FRAME 
616  10704    V     D    030 04:53:46:01 04:53:47:22 01:30:23:22 01:30:25:13 
* TO CLIP NAME:  14G/3 
617  10704    V     C        04:53:48:04 04:53:49:03 01:30:25:13 01:30:26:12 
* FROM CLIP NAME:  14G/3 
618  10704    V     C        04:53:49:10 04:53:50:10 01:30:26:12 01:30:27:12 
* FROM CLIP NAME:  14G/3 
619  10704    V     C        04:49:54:18 04:50:02:17 01:30:27:12 01:30:35:11 
* FROM CLIP NAME:  14B/3  B 
620  10703    V     C        03:47:03:00 03:47:04:08 01:30:35:11 01:30:36:19 
* FROM CLIP NAME:  14/3 
621  10704    V     C        04:13:18:02 04:13:19:23 01:30:36:19 01:30:38:10 
* FROM CLIP NAME:  14A/1  B 
622  10704    V     C        04:50:04:14 04:50:05:24 01:30:38:10 01:30:39:20 
* FROM CLIP NAME:  14B/3  B 
623  10704    V     C        04:13:21:03 04:13:22:09 01:30:39:20 01:30:40:26 
* FROM CLIP NAME:  14A/1  B 
624  10704    V     C        04:16:51:26 04:16:53:27 01:30:40:26 01:30:42:27 
* FROM CLIP NAME:  14B/2 
625  10704    V     C        04:13:25:06 04:13:26:27 01:30:42:27 01:30:44:18 
* FROM CLIP NAME:  14A/1  B 
626  10704    V     C        04:18:25:26 04:18:27:04 01:30:44:18 01:30:45:26 
* FROM CLIP NAME:  14B/3 
627  10704    V     C        04:15:09:20 04:15:11:00 01:30:45:26 01:30:47:06 
* FROM CLIP NAME:  14A/2  B 
628  10704    V     C        04:16:58:28 04:17:00:00 01:30:47:06 01:30:48:08 
* FROM CLIP NAME:  14B/2 
629  10704    V     C        04:15:11:10 04:15:12:22 01:30:48:08 01:30:49:20 
* FROM CLIP NAME:  14A/2  B 
630  10704    V     C        04:17:01:16 04:17:07:21 01:30:49:20 01:30:55:25 
* FROM CLIP NAME:  14B/2 
631  10704    V     C        04:13:43:10 04:13:46:08 01:30:55:25 01:30:58:23 
* FROM CLIP NAME:  14A/1  B 
632  10704    V     C        04:50:33:27 04:50:35:28 01:30:58:23 01:31:00:26 
* FROM CLIP NAME:  14B/3  B 
633  10704    V     C        04:13:50:29 04:13:52:21 01:31:00:26 01:31:02:18 
* FROM CLIP NAME:  14A/1  B 
634  10704    V     C        04:53:55:17 04:53:57:12 01:31:02:18 01:31:04:13 
* FROM CLIP NAME:  14G/3 
635  10704    V     C        04:13:54:16 04:13:57:00 01:31:04:13 01:31:06:27 
* FROM CLIP NAME:  14A/1  B 
636  10704    V     C        04:54:23:04 04:54:24:09 01:31:06:27 01:31:08:02 
* FROM CLIP NAME:  14G/4 
637  10703    V     C        03:50:57:20 03:51:00:20 01:31:08:02 01:31:11:02 
* FROM CLIP NAME:  14A/2 
638  10704    V     C        04:23:24:07 04:23:25:21 01:31:11:02 01:31:12:16 
* FROM CLIP NAME:  14J/2 
639  10704    V     C        04:14:02:10 04:14:04:03 01:31:12:16 01:31:14:09 
* FROM CLIP NAME:  14A/1  B 
640  10704    V     C        04:19:02:11 04:19:03:14 01:31:14:09 01:31:15:12 
* FROM CLIP NAME:  14B/3 
641  10704    V     C        04:24:32:04 04:24:35:13 01:31:15:12 01:31:18:21 
* FROM CLIP NAME:  14J/3 
642  10704    V     C        04:14:07:07 04:14:08:29 01:31:18:21 01:31:20:13 
* FROM CLIP NAME:  14A/1  B 
643  10703    V     C        03:47:55:22 03:47:57:01 01:31:20:13 01:31:21:22 
* FROM CLIP NAME:  14/3 
644  10704    V     C        04:24:40:13 04:24:41:05 01:31:21:22 01:31:22:14 
* FROM CLIP NAME:  14J/3 
645  10704    V     C        04:14:11:06 04:14:12:13 01:31:22:14 01:31:23:21 
* FROM CLIP NAME:  14A/1  B 
646  10704    V     C        04:51:15:14 04:51:16:20 01:31:23:21 01:31:24:27 
* FROM CLIP NAME:  14C/2  B 
647  10704    V     C        04:14:13:24 04:14:14:28 01:31:24:27 01:31:26:01 
* FROM CLIP NAME:  14A/1  B 
648  10704    V     C        04:24:46:02 04:24:46:28 01:31:26:01 01:31:26:27 
* FROM CLIP NAME:  14J/3 
649  10704    V     C        04:19:15:28 04:19:16:19 01:31:26:27 01:31:27:18 
* FROM CLIP NAME:  14B/3 
650  10704    V     C        04:51:22:03 04:51:24:01 01:31:27:18 01:31:29:16 
* FROM CLIP NAME:  14C/2  B 
651  10704    V     C        04:14:16:26 04:14:17:27 01:31:29:16 01:31:30:17 
* FROM CLIP NAME:  14A/1  B 
652  10704    V     C        04:17:45:01 04:17:46:06 01:31:30:17 01:31:31:22 
* FROM CLIP NAME:  14B/2 
653  10704    V     C        04:24:51:13 04:24:53:23 01:31:31:22 01:31:34:02 
* FROM CLIP NAME:  14J/3 
654  10704    V     C        04:14:19:27 04:14:21:01 01:31:34:02 01:31:35:06 
* FROM CLIP NAME:  14A/1  B 
655  10703    V     C        03:49:37:17 03:49:39:15 01:31:35:06 01:31:37:04 
* FROM CLIP NAME:  14A/1 
656  10704    V     C        04:54:37:14 04:54:40:13 01:31:37:04 01:31:40:03 
* FROM CLIP NAME:  14H/1 
657  10704    V     C        04:24:57:02 04:24:59:02 01:31:40:03 01:31:42:03 
* FROM CLIP NAME:  14J/3 
658  10704    V     C        04:16:04:26 04:16:08:17 01:31:42:03 01:31:45:24 
* FROM CLIP NAME:  14A/2  B 
659  10704    V     C        04:25:04:13 04:25:06:17 01:31:45:24 01:31:47:28 
* FROM CLIP NAME:  14J/3 
660  10704    V     C        04:19:42:17 04:19:45:15 01:31:47:28 01:31:50:26 
* FROM CLIP NAME:  14D/4 
661  10704    V     C        04:52:06:09 04:52:08:26 01:31:50:26 01:31:53:13 
* FROM CLIP NAME:  14E/1  B 
662  10704    V     C        04:19:48:01 04:19:51:20 01:31:53:13 01:31:57:02 
* FROM CLIP NAME:  14D/4 
663  10704    V     C        04:52:48:24 04:52:50:20 01:31:57:02 01:31:58:28 
* FROM CLIP NAME:  14E/1  B 
664  10704    V     C        04:22:15:21 04:22:17:14 01:31:58:28 01:32:00:23 
* FROM CLIP NAME:  14E/1 
665  10704    V     C        04:19:56:06 04:21:24:02 01:32:00:23 01:33:28:21 
* FROM CLIP NAME:  14D/4 
666  10704    V     C        04:53:14:00 04:53:15:12 01:33:28:21 01:33:30:03 
* FROM CLIP NAME:  14F/1 
667  10704    V     C        04:21:28:22 04:21:51:22 01:33:30:03 01:33:53:03 
* FROM CLIP NAME:  14D/4 
668  10704    V     C        04:21:51:22 04:21:51:22 01:33:53:03 01:33:53:03 
FCM: DROP FRAME 
668  MKA1     V     D    045 01:13:02:18 01:13:05:11 01:33:53:03 01:33:55:26 
M2   MKA1          -030.0                01:13:02:18 
* FROM CLIP NAME:  14D/4 
* TO CLIP NAME:  COBALT MINE -LAVA PIT 
669  MKA1     V     C        01:12:59:23 01:12:59:23 01:33:55:26 01:33:55:26 
FCM: NON-DROP FRAME 
669  10702    V     D    030 02:20:25:22 02:20:33:26 01:33:55:26 01:34:04:02 
M2   MKA1          -030.0                01:12:59:23 
* FROM CLIP NAME:  COBALT MINE -LAVA PIT 
* TO CLIP NAME:  15D/2 
670  10702    V     C        02:34:31:03 02:34:33:09 01:34:04:02 01:34:06:08 
* FROM CLIP NAME:  15H/1 
671  10703    V     C        03:54:05:12 03:54:06:26 01:34:06:08 01:34:07:22 
* FROM CLIP NAME:  15K/2  B 
672  10702    V     C        02:29:56:10 02:29:59:02 01:34:07:22 01:34:10:14 
* FROM CLIP NAME:  15D/2 B 
673  10703    V     C        03:54:10:16 03:54:12:27 01:34:10:14 01:34:12:25 
* FROM CLIP NAME:  15K/2  B 
674  10702    V     C        02:22:52:18 02:22:57:11 01:34:12:25 01:34:17:18 
* FROM CLIP NAME:  15E/1 
675  10703    V     C        03:07:22:07 03:07:24:10 01:34:17:18 01:34:19:21 
* FROM CLIP NAME:  15K/2 
676  10703    V     C        03:10:08:02 03:10:09:26 01:34:19:21 01:34:21:15 
* FROM CLIP NAME:  15M/3 
677  10702    V     C        02:32:25:01 02:32:39:07 01:34:21:15 01:34:35:21 
* FROM CLIP NAME:  15E/1 B 
678  10703    V     C        03:54:42:07 03:54:44:21 01:34:35:21 01:34:38:05 
* FROM CLIP NAME:  15K/2  B 
679  10703    V     C        03:10:44:19 03:10:46:26 01:34:38:05 01:34:40:12 
* FROM CLIP NAME:  15M/3 
680  10702    V     C        02:26:03:16 02:26:05:28 01:34:40:12 01:34:42:24 
* FROM CLIP NAME:  15J/2 
681  10703    V     C        03:10:51:04 03:10:53:21 01:34:42:24 01:34:45:11 
* FROM CLIP NAME:  15M/3 
682  10702    V     C        02:26:06:15 02:26:08:18 01:34:45:11 01:34:47:14 
* FROM CLIP NAME:  15J/2 
683  10703    V     C        03:10:49:06 03:10:51:03 01:34:47:14 01:34:49:11 
* FROM CLIP NAME:  15M/3 
684  10702    V     C        02:26:11:28 02:26:18:14 01:34:49:11 01:34:55:27 
* FROM CLIP NAME:  15J/2 
685  10702    V     C        02:30:56:24 02:31:00:16 01:34:55:27 01:34:59:19 
* FROM CLIP NAME:  15D/2 B 
686  10703    V     C        03:54:59:20 03:55:03:18 01:34:59:19 01:35:03:19 
* FROM CLIP NAME:  15K/2  B 
687  10702    V     C        02:23:50:14 02:23:54:07 01:35:03:19 01:35:07:12 
* FROM CLIP NAME:  15E/1 
688  10702    V     C        02:31:08:28 02:31:10:02 01:35:07:12 01:35:08:16 
* FROM CLIP NAME:  15D/2 B 
689  10702    V     C        02:33:14:04 02:33:16:04 01:35:08:16 01:35:10:16 
* FROM CLIP NAME:  15E/1 B 
690  10702    V     C        02:31:12:28 02:31:15:10 01:35:10:16 01:35:12:28 
* FROM CLIP NAME:  15D/2 B 
691  10702    V     C        02:21:55:16 02:21:59:08 01:35:12:28 01:35:16:20 
* FROM CLIP NAME:  15D/2 
692  10702    V     C        02:34:02:11 02:34:06:21 01:35:16:20 01:35:21:00 
* FROM CLIP NAME:  15G/1 
693  10702    V     C        02:22:02:07 02:22:04:01 01:35:21:00 01:35:22:24 
* FROM CLIP NAME:  15D/2 
694  10703    V     C        03:55:19:01 03:55:20:02 01:35:22:24 01:35:23:25 
* FROM CLIP NAME:  15K/2  B 
695  10702    V     C        02:31:23:28 02:31:25:00 01:35:23:25 01:35:24:27 
* FROM CLIP NAME:  15D/2 B 
696  10702    V     C        02:33:28:09 02:33:30:01 01:35:24:27 01:35:26:19 
* FROM CLIP NAME:  15E/1 B 
697  10702    V     C        02:22:05:12 02:22:06:04 01:35:26:19 01:35:27:11 
* FROM CLIP NAME:  15D/2 
698  10702    V     C        02:34:07:10 02:34:07:17 01:35:27:11 01:35:27:18 
* FROM CLIP NAME:  15G/1 
699  10702    V     C        02:24:10:25 02:24:11:23 01:35:27:18 01:35:28:16 
* FX 15-1   ENERGY SWIRL STARTS TO RISE 
* FROM CLIP NAME:  15E/1 
700  10703    V     C        03:06:20:16 03:06:21:23 01:35:28:16 01:35:29:23 
* FROM CLIP NAME:  15K/1 
701  10702    V     C        02:24:53:21 02:24:54:15 01:35:29:23 01:35:30:17 
* FX 15-2  ENERGY SWIRL ENGULFS JOLA 
* FROM CLIP NAME:  15F/1 
702  10702    V     C        02:24:54:15 02:24:54:15 01:35:30:17 01:35:30:17 
702  10702B   V     D    045 02:24:56:24 02:24:58:24 01:35:30:17 01:35:32:17 
* FX 15-2  ENERGY SWIRL ENGULFS JOLA 
* FROM CLIP NAME:  15F/1 
* TO CLIP NAME:  15F/1 
703  10702    V     C        02:33:32:26 02:33:34:20 01:35:32:17 01:35:34:11 
* FROM CLIP NAME:  15E/1 B 
704  10703    V     C        03:55:21:10 03:55:23:04 01:35:34:11 01:35:36:05 
* FROM CLIP NAME:  15K/2  B 
705  10702    V     C        02:28:06:09 02:28:06:15 01:35:36:05 01:35:36:11 
* FX 15-3  JOLA TRANSFORMS 
* FROM CLIP NAME:  15C/1 
706  10702    V     C        02:28:06:15 02:28:06:15 01:35:36:11 01:35:36:11 
706  10702B   V     D    020 02:28:28:12 02:28:29:03 01:35:36:11 01:35:37:02 
* FX 15-3  JOLA TRANSFORMS 
* FROM CLIP NAME:  15C/1 
* TO CLIP NAME:  15C/1 
707  10702B   V     C        02:28:29:03 02:28:29:03 01:35:37:02 01:35:37:02 
707  10702    V     D    045 02:27:28:26 02:27:35:01 01:35:37:02 01:35:43:07 
* FX 15-3  JOLA TRANSFORMS 
* FROM CLIP NAME:  15C/1 
* TO CLIP NAME:  15B/2 B 
708  10702    V     C        02:15:31:02 02:15:34:13 01:35:43:07 01:35:46:18 
* FROM CLIP NAME:  15/2 
709  10702    V     C        02:26:56:27 02:26:58:19 01:35:46:18 01:35:48:10 
* FROM CLIP NAME:  15B/1 B 
710  10703    V     C        03:53:22:28 03:53:24:04 01:35:48:10 01:35:49:16 
* FROM CLIP NAME:  15K/1  B 
711  11002    V     C        02:00:10:00 02:00:11:24 01:35:49:16 01:35:51:10 
* FX 15-4  FLAMES IN JOLA'S EYES 
* FROM CLIP NAME:  15B/2 
712  10702    V     C        02:15:29:15 02:15:30:29 01:35:51:10 01:35:52:24 
* FROM CLIP NAME:  15/2 
713  11002    V     C        02:00:23:03 02:00:24:17 01:35:52:24 01:35:54:08 
* FX 15-5  FLAMES IN JOLA'S EYES 
* FROM CLIP NAME:  15B/2 
714  10703    V     C        03:08:45:21 03:08:47:07 01:35:54:08 01:35:55:24 
* FROM CLIP NAME:  15K/2 
715  10702    V     C        02:18:34:15 02:18:35:07 01:35:55:24 01:35:56:16 
* FROM CLIP NAME:  15B/2 
716  10703    V     C        03:08:47:20 03:08:48:06 01:35:56:16 01:35:57:02 
* FROM CLIP NAME:  15K/2 
717  10702    V     C        02:18:35:07 02:18:35:24 01:35:57:02 01:35:57:19 
* FX 15-6  FLAME OUT OF HER HAND 
* FROM CLIP NAME:  15B/2 
718  10703    V     C        03:08:48:29 03:08:49:25 01:35:57:19 01:35:58:15 
* FROM CLIP NAME:  15K/2 
719  10703    V     C        03:09:02:06 03:09:03:16 01:35:58:15 01:35:59:25 
* FROM CLIP NAME:  15L/2 
720  10702    V     C        02:19:37:10 02:19:40:12 01:35:59:25 01:36:02:29 
* FROM CLIP NAME:  15B/3PU 
721  10703    V     C        03:53:30:08 03:53:32:07 01:36:02:29 01:36:04:28 
* PLEASE BLOW UP 
* FROM CLIP NAME:  15K/1  B 
722  10702    V     C        02:18:20:23 02:18:23:10 01:36:04:28 01:36:07:15 
* FROM CLIP NAME:  15B/2 
723  10702    V     C        02:15:40:11 02:15:43:21 01:36:07:15 01:36:10:25 
* FROM CLIP NAME:  15/2 
724  10702    V     C        02:19:38:22 02:19:42:07 01:36:10:25 01:36:14:10 
* FROM CLIP NAME:  15B/3PU 
FCM: DROP FRAME 
725  MTREEL   V     C        01:04:43:02 01:04:46:02 01:36:14:10 01:36:17:10 
* FROM CLIP NAME:  ZHU ZHIN DAY 
FCM: NON-DROP FRAME 
726  10706    V     C        06:16:01:21 06:16:27:28 01:36:17:10 01:36:43:17 
* FROM CLIP NAME:  16A/6 
FCM: DROP FRAME 
727  MTREEL   V     C        01:02:49:02 01:02:50:15 01:36:43:17 01:36:45:00 
* FROM CLIP NAME:  FIRE  LOGO 
FCM: NON-DROP FRAME 
728  10707    V     C        07:13:41:01 07:13:46:22 01:36:45:00 01:36:50:21 
* COLOR BLUISH BLACK & WHITE 
* FROM CLIP NAME:  18/6 
729  10707    V     C        07:13:46:22 07:13:46:22 01:36:50:21 01:36:50:21 
FCM: DROP FRAME 
729     BL    V     D    010 00:00:00:00 00:00:00:10 01:36:50:21 01:36:51:01 
* COLOR BLUISH BLACK & WHITE 
* FROM CLIP NAME:  18/6 
730     AX    V     C        00:00:14:15 00:00:19:15 01:36:51:01 01:36:56:01 
* FROM CLIP NAME:  GOOD #3 
731     BL    V     C        00:00:00:00 00:00:00:00 01:36:56:01 01:36:56:01 
FCM: NON-DROP FRAME 
731  10708    V     D    030 08:29:07:23 08:29:39:14 01:36:56:01 01:37:27:24 
* TO CLIP NAME:  17/7 
732  10708    V     C        08:07:54:21 08:07:57:02 01:37:27:24 01:37:30:05 
* FROM CLIP NAME:  17E/3 
733  10708    V     C        08:31:10:13 08:31:14:00 01:37:30:05 01:37:33:22 
* FROM CLIP NAME:  17A/2 
734  10708    V     C        08:07:31:09 08:07:33:11 01:37:33:22 01:37:35:24 
* FROM CLIP NAME:  17E/1 
735  10708    V     C        08:31:18:26 08:31:23:02 01:37:35:24 01:37:40:00 
* FX 17-1  JOLA'S EYES GLOW 
* FROM CLIP NAME:  17A/2 
736  10708    V     C        08:08:24:22 08:08:26:15 01:37:40:00 01:37:41:23 
* FROM CLIP NAME:  17E/3 
737  10708    V     C        08:30:38:14 08:30:40:17 01:37:41:23 01:37:43:26 
* FX 17-2  ENERGY GLOW 
* FROM CLIP NAME:  17A/1 
738  10708    V     C        08:06:20:17 08:06:21:26 01:37:43:26 01:37:45:05 
* FX 17-3  ENERGY GLOW 
* FROM CLIP NAME:  17D/2 
739  10708    V     C        08:30:41:17 08:30:45:07 01:37:45:05 01:37:48:25 
* FX 17-4  ENERGY GLOW 
* FROM CLIP NAME:  17A/1 
740  10708    V     C        08:06:24:28 08:06:28:18 01:37:48:25 01:37:52:15 
* FX 17-5  ENERGY GLOW 
* FROM CLIP NAME:  17D/2 
741  10708    V     C        08:31:59:24 08:32:05:01 01:37:52:15 01:37:57:22 
* FROM CLIP NAME:  17A/3 
FCM: DROP FRAME 
742  MTREEL   V     C        01:04:53:29 01:04:56:29 01:37:57:22 01:38:00:24 
* FROM CLIP NAME:  ZHU ZHIN NIGHT 
FCM: NON-DROP FRAME 
743  10707    V     C        07:13:37:00 07:13:45:19 01:38:00:24 01:38:09:13 
* FROM CLIP NAME:  18/6 
744  10707    V     C        07:16:14:26 07:16:15:27 01:38:09:13 01:38:10:14 
* FROM CLIP NAME:  18E/1 
745  10707    V     C        07:15:45:02 07:15:46:19 01:38:10:14 01:38:12:01 
* FROM CLIP NAME:  18D/1 
746  10707    V     C        07:13:57:24 07:13:58:02 01:38:12:01 01:38:12:09 
* FROM CLIP NAME:  18/6 
747  10707    V     C        07:15:21:08 07:15:21:19 01:38:12:09 01:38:12:20 
M2   10707          044.5                07:15:21:08 
* FROM CLIP NAME:  18C/1 
* REPAIR: FROM SOURCE TRUE SPEED IS 44.516129 FPS 
748  10707    V     C        07:15:48:07 07:15:49:11 01:38:12:20 01:38:13:24 
* FROM CLIP NAME:  18D/1 
749  10707    V     C        07:16:23:02 07:16:23:23 01:38:13:24 01:38:14:15 
* FROM CLIP NAME:  18E/1 
750  10707    V     C        07:14:23:16 07:14:24:06 01:38:14:15 01:38:15:05 
* FROM CLIP NAME:  18A/1 
751  10707    V     C        07:17:12:11 07:17:12:26 01:38:15:05 01:38:15:20 
* FROM CLIP NAME:  18E/2 
752  10707    V     C        07:14:24:06 07:14:24:24 01:38:15:20 01:38:16:08 
* FX 18-1  FLAME COMING OUT OF HAND 
* FROM CLIP NAME:  18A/1 
753  10707    V     C        07:17:47:19 07:17:49:11 01:38:16:08 01:38:18:00 
* FROM CLIP NAME:  18F/1 
754  10707    V     C        07:15:14:06 07:15:15:12 01:38:18:00 01:38:19:06 
* FROM CLIP NAME:  18B/3 
755  10707    V     C        07:16:41:01 07:16:42:29 01:38:19:06 01:38:21:04 
* FROM CLIP NAME:  18E/1 
756  10707    V     C        07:14:28:16 07:14:30:06 01:38:21:04 01:38:22:24 
* FROM CLIP NAME:  18A/1 
757  10707    V     C        07:16:43:28 07:16:45:03 01:38:22:24 01:38:23:29 
* FROM CLIP NAME:  18E/1 
758  10707    V     C        07:15:54:21 07:15:56:10 01:38:23:29 01:38:25:18 
* FROM CLIP NAME:  18D/1 
759  10708    V     C        08:25:45:21 08:25:46:23 01:38:25:18 01:38:26:20 
* FROM CLIP NAME:  19J/1 
760  10708    V     C        08:17:51:25 08:17:52:21 01:38:26:20 01:38:27:16 
* FROM CLIP NAME:  19C/1 
761  10708    V     C        08:48:36:03 08:48:38:12 01:38:27:16 01:38:29:25 
* FROM CLIP NAME:  19J/ALL D 
762  10708    V     C        08:44:53:28 08:44:54:27 01:38:29:25 01:38:30:24 
* FX 19-1  FLAME COMING OUT OF HAND 
* FROM CLIP NAME:  19C/1 C 
763  10708    V     C        08:26:20:12 08:26:20:25 01:38:30:24 01:38:31:07 
* FROM CLIP NAME:  19J/2 
764  10708    V     C        08:44:55:25 08:44:56:18 01:38:31:07 01:38:32:00 
* FROM CLIP NAME:  19C/1 C 
765  2ND17    V     C        17:27:49:15 17:27:50:22 01:38:32:00 01:38:33:07 
* FROM CLIP NAME:  X13AW/SERIES 
766  10708    V     C        08:44:56:05 08:44:56:28 01:38:33:07 01:38:34:00 
* FROM CLIP NAME:  19C/1 C 
767  10708    V     C        08:24:14:14 08:24:15:15 01:38:34:00 01:38:35:01 
* FROM CLIP NAME:  19G/1 
768  10708    V     C        08:17:55:24 08:17:56:14 01:38:35:01 01:38:35:21 
* FX 19-2  FLAME COMING OUT OF HAND 
* FROM CLIP NAME:  19C/1 
769  10708    V     C        08:24:48:06 08:24:49:05 01:38:35:21 01:38:36:20 
* FROM CLIP NAME:  19G/1 
770  10708    V     C        08:44:59:24 08:45:00:24 01:38:36:20 01:38:37:20 
* FROM CLIP NAME:  19C/1 C 
771  10708    V     C        08:24:21:12 08:24:22:18 01:38:37:20 01:38:38:26 
* FROM CLIP NAME:  19G/1 
772  10708    V     C        08:43:33:07 08:43:36:05 01:38:38:26 01:38:41:24 
* FROM CLIP NAME:  19A/1 C 
773  10708    V     C        08:24:24:24 08:24:26:04 01:38:41:24 01:38:43:04 
* FROM CLIP NAME:  19G/1 
774  10708    V     C        08:16:25:25 08:16:26:10 01:38:43:04 01:38:43:19 
* FX 19-3  FLAME COMING OUT OF HAND 
* FROM CLIP NAME:  19A/1 
775  10708    V     C        08:24:53:28 08:24:54:20 01:38:43:19 01:38:44:11 
* FROM CLIP NAME:  19G/1 
776  10708    V     C        08:43:37:27 08:43:39:00 01:38:44:11 01:38:45:14 
* FROM CLIP NAME:  19A/1 C 
777  10708    V     C        08:47:07:16 08:47:10:19 01:38:45:14 01:38:48:17 
* FLOP 
* FROM CLIP NAME:  19D/1 D 
778  10708    V     C        08:15:24:19 08:15:25:04 01:38:48:17 01:38:49:02 
* FX 19-4  FLAME COMING OUT OF HAND 
* FROM CLIP NAME:  19/1 
779  10708    V     C        08:18:39:01 08:18:39:15 01:38:49:02 01:38:49:16 
* FLOP 
* FROM CLIP NAME:  19D/1 
780  10708    V     C        08:47:24:24 08:47:26:14 01:38:49:16 01:38:51:06 
* FLOP 
* FROM CLIP NAME:  19D/1 D 
781  10708    V     C        08:15:26:10 08:15:27:21 01:38:51:06 01:38:52:17 
* FX 19-5  FLAME COMING OUT OF HAND 
* FROM CLIP NAME:  19/1 
782  10708    V     C        08:18:43:04 08:18:43:27 01:38:52:17 01:38:53:10 
* FLOP 
* FROM CLIP NAME:  19D/1 
783  10708    V     C        08:15:28:13 08:15:29:06 01:38:53:10 01:38:54:03 
* FROM CLIP NAME:  19/1 
784  10708    V     C        08:18:47:02 08:18:48:07 01:38:54:03 01:38:55:08 
* FLOP 
* FROM CLIP NAME:  19D/1 
785  10708    V     C        08:15:29:09 08:15:30:07 01:38:55:08 01:38:56:06 
* FROM CLIP NAME:  19/1 
786  10708    V     C        08:18:48:07 08:18:49:28 01:38:56:06 01:38:57:27 
* FLOP 
* FROM CLIP NAME:  19D/1 
787  10708    V     C        08:25:28:06 08:25:29:07 01:38:57:27 01:38:58:28 
* FROM CLIP NAME:  19H/1 
788  10708    V     C        08:43:54:10 08:43:56:26 01:38:58:28 01:39:01:16 
* FROM CLIP NAME:  19B/1 C 
789  10708    V     C        08:25:30:25 08:25:32:26 01:39:01:16 01:39:03:17 
* FROM CLIP NAME:  19H/1 
790  2ND18    V     C        18:04:29:01 18:04:31:02 01:39:03:17 01:39:05:18 
* FLOP 
* FROM CLIP NAME:  X19M/SER 
791  2ND18    V     C        18:17:36:11 18:17:37:04 01:39:05:18 01:39:06:11 
* FROM CLIP NAME:  X19B/SER 
792  2ND18    V     C        18:18:33:19 18:18:34:00 01:39:06:11 01:39:06:22 
* FROM CLIP NAME:  X19B/SER 
793  2ND18    V     C        18:17:37:17 18:17:38:14 01:39:06:22 01:39:07:19 
* FROM CLIP NAME:  X19B/SER 
794  2ND18    V     C        18:17:04:19 18:17:06:00 01:39:07:19 01:39:09:00 
* FROM CLIP NAME:  X19B/SER 
795  2ND18    V     C        18:17:39:25 18:17:40:13 01:39:09:00 01:39:09:18 
* FROM CLIP NAME:  X19B/SER 
796  10708    V     C        08:24:34:11 08:24:35:00 01:39:09:18 01:39:10:07 
* FROM CLIP NAME:  19G/1 
797  2ND17    V     C        17:29:34:25 17:29:36:00 01:39:10:07 01:39:11:12 
* FROM CLIP NAME:  X19/SERIES 
798  2ND17    V     C        17:29:48:11 17:29:48:24 01:39:11:12 01:39:11:25 
* FROM CLIP NAME:  X19/SERIES 
799  2ND17    V     C        17:29:36:04 17:29:36:20 01:39:11:25 01:39:12:11 
* FROM CLIP NAME:  X19/SERIES 
800  2ND18    V     C        18:09:28:12 18:09:29:25 01:39:12:11 01:39:13:24 
* FROM CLIP NAME:  X19J/SER 
801  2ND17    V     C        17:29:37:18 17:29:38:27 01:39:13:24 01:39:15:03 
* FROM CLIP NAME:  X19/SERIES 
802  2ND18    V     C        18:16:39:08 18:16:39:16 01:39:15:03 01:39:15:11 
* FROM CLIP NAME:  X19B/SER 
803  2ND18    V     C        18:06:01:05 18:06:02:18 01:39:15:11 01:39:16:24 
* FROM CLIP NAME:  X19M/SER 
804  2ND18    V     C        18:16:50:27 18:16:51:17 01:39:16:24 01:39:17:14 
* FROM CLIP NAME:  X19B/SER 
805  2ND17    V     C        17:30:21:26 17:30:22:24 01:39:17:14 01:39:18:12 
* FROM CLIP NAME:  X19B/SERIES 
806  2ND17    V     C        17:30:23:06 17:30:24:13 01:39:18:12 01:39:19:19 
* FROM CLIP NAME:  X19B/SERIES 
807  2ND17    V     C        17:10:55:22 17:10:56:17 01:39:19:19 01:39:20:14 
* FROM CLIP NAME:  X19/SERIES C 
808  2ND17    V     C        17:31:56:09 17:31:56:27 01:39:20:14 01:39:21:02 
* FROM CLIP NAME:  X19B/SERIES 
809  2ND17    V     C        17:31:07:24 17:31:09:14 01:39:21:02 01:39:22:22 
* FROM CLIP NAME:  X19B/SERIES 
810  2ND18    V     C        18:12:11:07 18:12:12:26 01:39:22:22 01:39:24:11 
* FROM CLIP NAME:  X19T/SER 
811  2ND18    V     C        18:16:52:17 18:16:54:10 01:39:24:11 01:39:26:04 
* FROM CLIP NAME:  X19B/SER 
812  10708    V     C        08:44:53:28 08:44:54:27 01:39:26:04 01:39:27:03 
* FX 19-6  FLAME COMING OUT OF HAND 
* FROM CLIP NAME:  19C/1 C 
813  10708    V     C        08:26:23:00 08:26:23:13 01:39:27:03 01:39:27:16 
* FROM CLIP NAME:  19J/2 
814  10708    V     C        08:44:55:25 08:44:56:08 01:39:27:16 01:39:27:29 
* FROM CLIP NAME:  19C/1 C 
815  2ND18    V     C        18:00:25:25 18:00:26:21 01:39:27:29 01:39:28:25 
* FROM CLIP NAME:  X19M/SER 
816  2ND17    V     C        17:12:09:15 17:12:11:22 01:39:28:25 01:39:31:02 
* FROM CLIP NAME:  X19/SERIES C 
817  2ND17    V     C        17:13:17:21 17:13:19:15 01:39:31:02 01:39:32:26 
* FROM CLIP NAME:  X19/SERIES C 
818  2ND18    V     C        18:12:57:18 18:12:57:29 01:39:32:26 01:39:33:07 
* FROM CLIP NAME:  X19T/SER 
819  2ND18    V     C        18:03:36:21 18:03:37:26 01:39:33:07 01:39:34:12 
* FROM CLIP NAME:  X19M/SER 
820  2ND17    V     C        17:13:32:03 17:13:32:11 01:39:34:12 01:39:34:20 
* FROM CLIP NAME:  X19/SERIES C 
821  2ND18    V     C        18:04:10:13 18:04:11:12 01:39:34:20 01:39:35:19 
* FROM CLIP NAME:  X19M/SER 
822  2ND8     V     C        08:25:20:14 08:25:20:25 01:39:35:19 01:39:36:00 
* FLOP 
* FROM CLIP NAME:  X16X/1 
823  2ND18    V     C        18:06:28:15 18:06:30:01 01:39:36:00 01:39:37:16 
* FLOP 
* FROM CLIP NAME:  X19H/SER 
824  2ND18    V     C        18:17:12:20 18:17:13:03 01:39:37:16 01:39:37:29 
* FLOP 
* FROM CLIP NAME:  X19B/SER 
825  2ND18    V     C        18:18:28:27 18:18:29:15 01:39:37:29 01:39:38:17 
* FLOP 
* FROM CLIP NAME:  X19B/SER 
826  2ND18    V     C        18:17:13:13 18:17:13:23 01:39:38:17 01:39:38:27 
* FLOP 
* FROM CLIP NAME:  X19B/SER 
827  2ND18    V     C        18:15:54:16 18:15:59:16 01:39:38:27 01:39:43:27 
* FLOP 
* FROM CLIP NAME:  X19B/SER 
828  10708    V     C        08:15:57:23 08:15:58:08 01:39:43:27 01:39:44:12 
* FROM CLIP NAME:  19/2 
829  2ND18    V     C        18:07:17:04 18:07:18:04 01:39:44:12 01:39:45:12 
* FROM CLIP NAME:  X19J/SER 
830  2ND17    V     C        17:13:35:15 17:13:36:23 01:39:45:12 01:39:46:20 
* FROM CLIP NAME:  X19/SERIES C 
831  2ND18    V     C        18:07:39:09 18:07:39:19 01:39:46:20 01:39:47:00 
* FROM CLIP NAME:  X19J/SER 
832  2ND18    V     C        18:07:59:24 18:08:00:21 01:39:47:00 01:39:47:27 
* FROM CLIP NAME:  X19J/SER 
833  2ND18    V     C        18:08:29:03 18:08:30:19 01:39:47:27 01:39:49:13 
* FROM CLIP NAME:  X19J/SER 
834  2ND18    V     C        18:08:02:07 18:08:02:28 01:39:49:13 01:39:50:04 
* FROM CLIP NAME:  X19J/SER 
835  10708    V     C        08:15:46:08 08:15:46:28 01:39:50:04 01:39:50:24 
* FLOP  FX 19-7  FLAME COMING OUT OF HAND 
* FROM CLIP NAME:  19/2 
836  2ND18    V     C        18:11:48:17 18:11:49:13 01:39:50:24 01:39:51:20 
* FROM CLIP NAME:  X19T/SER 
837  10708    V     C        08:15:46:22 08:15:47:21 01:39:51:20 01:39:52:19 
* FLOP  FX 19-7  FLAME COMING OUT OF HAND 
* FROM CLIP NAME:  19/2 
838  10708    V     C        08:25:17:23 08:25:18:23 01:39:52:19 01:39:53:19 
* FROM CLIP NAME:  19H/1 
839  10708    V     C        08:17:53:06 08:17:54:05 01:39:53:19 01:39:54:18 
M2   10708         -030.0                08:17:53:06 
* FX 19-8  JOLA LOSES ENERGY  SHOT SPEED CHANGE REVERSE 30 FPS 
* FROM CLIP NAME:  19C/1 
840  10708    V     C        08:20:40:26 08:20:44:09 01:39:54:18 01:39:58:01 
* FX 19-9  JOLA LOSES ENERGY 
* FROM CLIP NAME:  19E/1 
841  10708    V     C        08:25:17:12 08:25:19:17 01:39:58:01 01:40:00:06 
* FROM CLIP NAME:  19H/1 
842  10708    V     C        08:20:44:16 08:20:48:26 01:40:00:06 01:40:04:16 
* FX 19-10  JOLA LOSES ENERGY/GETS SUCKED INTO COBALT MINES 
* FROM CLIP NAME:  19E/1 
843  10708    V     C        08:20:48:26 08:20:48:26 01:40:04:16 01:40:04:16 
843  10708B   V     D    008 08:20:58:25 08:21:00:04 01:40:04:16 01:40:05:25 
* FX 19-10  JOLA LOSES ENERGY/GETS SUCKED INTO COBALT MINES 
* FROM CLIP NAME:  19E/1 
* TO CLIP NAME:  19E/1 
844  10708    V     C        08:45:59:29 08:46:01:17 01:40:05:25 01:40:07:13 
* FLOP 
* FROM CLIP NAME:  19F/1 C 
845  10708    V     C        08:22:16:01 08:22:21:10 01:40:07:13 01:40:12:22 
* FROM CLIP NAME:  19F/2 
846  10708    V     C        08:46:34:15 08:46:39:14 01:40:12:22 01:40:17:21 
* FROM CLIP NAME:  19F/2 C 
847  5001     V     C        01:01:56:00 01:01:58:01 01:40:17:21 01:40:19:22 
* FROM CLIP NAME:  CAGE VORTEX 
848  5001     V     C        01:01:58:01 01:01:58:01 01:40:19:22 01:40:19:22 
848  10702    V     D    008 02:06:33:19 02:06:34:04 01:40:19:22 01:40:20:07 
* FX 20-1  JOLA ARRIVES THRU PORTAL 
* FROM CLIP NAME:  CAGE VORTEX 
* TO CLIP NAME:  20B/2 
849  10702    V     C        02:06:34:04 02:06:34:04 01:40:20:07 01:40:20:07 
849  10702B   V     D    008 02:06:44:09 02:06:45:25 01:40:20:07 01:40:21:23 
* FX 20-1  JOLA ARRIVES THRU PORTAL 
* FROM CLIP NAME:  20B/2 
* TO CLIP NAME:  20B/2 
850  10702    V     C        02:08:39:15 02:08:41:17 01:40:21:23 01:40:23:25 
* FX 20-2  PORTAL CLOSED/ ADD SMOKE THEN LET IT ROLL OUT 
* FROM CLIP NAME:  20C/1 
851  10702    V     C        02:00:23:02 02:00:26:25 01:40:23:25 01:40:27:18 
* FROM CLIP NAME:  20/3 
852  10702    V     C        02:04:28:06 02:04:30:00 01:40:27:18 01:40:29:12 
* FROM CLIP NAME:  20B/1 
853  10702    V     C        02:00:28:19 02:00:30:25 01:40:29:12 01:40:31:18 
* FROM CLIP NAME:  20/3 
854  10702    V     C        02:04:34:27 02:04:38:21 01:40:31:18 01:40:35:12 
* FROM CLIP NAME:  20B/1 
855  10702    V     C        02:10:35:20 02:10:39:23 01:40:35:12 01:40:39:15 
* FROM CLIP NAME:  20D/3 
856  10702    V     C        02:09:57:19 02:09:59:04 01:40:39:15 01:40:41:00 
* FROM CLIP NAME:  20C/2 
857  10702    V     C        02:10:41:29 02:10:43:16 01:40:41:00 01:40:42:17 
* FROM CLIP NAME:  20D/3 
858  10702    V     C        02:10:07:27 02:10:11:14 01:40:42:17 01:40:46:04 
* FROM CLIP NAME:  20C/2 
859  10702    V     C        02:10:47:03 02:10:52:09 01:40:46:04 01:40:51:10 
* FROM CLIP NAME:  20D/3 
860  10702    V     C        02:00:37:12 02:00:40:01 01:40:51:10 01:40:53:29 
* FROM CLIP NAME:  20/3 
861  10702    V     C        02:10:11:16 02:10:13:24 01:40:53:29 01:40:56:07 
* FROM CLIP NAME:  20C/2 
862  10702    V     C        02:10:57:06 02:11:00:22 01:40:56:07 01:40:59:23 
* FROM CLIP NAME:  20D/3 
863  10702    V     C        02:09:13:23 02:09:15:27 01:40:59:23 01:41:01:29 
* FROM CLIP NAME:  20C/1 
864  10702    V     C        02:07:21:21 02:07:24:07 01:41:01:29 01:41:04:15 
* FROM CLIP NAME:  20B/2 
865  10702    V     C        02:12:42:15 02:12:44:06 01:41:04:15 01:41:06:06 
* FROM CLIP NAME:  20F/1 
866  10702    V     C        02:11:28:24 02:11:30:19 01:41:06:06 01:41:08:01 
* FROM CLIP NAME:  20E/3 
867  10702    V     C        02:12:48:27 02:12:52:08 01:41:08:01 01:41:11:12 
* FROM CLIP NAME:  20F/1 
868  10702    V     C        02:05:15:16 02:05:18:07 01:41:11:12 01:41:14:03 
* FROM CLIP NAME:  20B/1 
869  10702    V     C        02:11:38:03 02:11:39:14 01:41:14:03 01:41:15:14 
* FROM CLIP NAME:  20E/3 
870  10702    V     C        02:12:57:25 02:13:00:12 01:41:15:14 01:41:18:01 
* FROM CLIP NAME:  20F/1 
871  10702    V     C        02:01:30:26 02:01:34:10 01:41:18:01 01:41:21:15 
* FROM CLIP NAME:  20/3 
872  10702    V     C        02:11:48:24 02:11:51:23 01:41:21:15 01:41:24:14 
* FROM CLIP NAME:  20E/3 
873  10702    V     C        02:13:10:02 02:13:11:19 01:41:24:14 01:41:26:01 
* FROM CLIP NAME:  20F/1 
874  10702    V     C        02:11:53:10 02:11:54:29 01:41:26:01 01:41:27:20 
* FROM CLIP NAME:  20E/3 
875  10702    V     C        02:14:02:23 02:14:07:18 01:41:27:20 01:41:32:15 
* FROM CLIP NAME:  20F/2 
876  10702    V     C        02:11:59:08 02:12:00:25 01:41:32:15 01:41:34:02 
* FROM CLIP NAME:  20E/3 
877  10702    V     C        02:14:09:01 02:14:10:29 01:41:34:02 01:41:36:00 
* FROM CLIP NAME:  20F/2 
878  10702    V     C        02:12:02:05 02:12:03:26 01:41:36:00 01:41:37:21 
* FROM CLIP NAME:  20E/3 
879  10702    V     C        02:02:54:25 02:03:05:22 01:41:37:21 01:41:48:18 
* FROM CLIP NAME:  20A/1 
880  10702    V     C        02:01:57:10 02:02:00:26 01:41:48:18 01:41:52:04 
* FROM CLIP NAME:  20/3 
881  10702    V     C        02:12:08:28 02:12:14:15 01:41:52:04 01:41:57:21 
* FROM CLIP NAME:  20E/3 
FCM: DROP FRAME 
882  MTREEL   V     C        01:02:49:03 01:02:50:15 01:41:57:21 01:41:59:03 
* FROM CLIP NAME:  FIRE  LOGO 
FCM: NON-DROP FRAME 
883  2ND18    V     C        18:04:29:02 18:04:30:28 01:41:59:03 01:42:01:01 
* COLOR BLUISH BLACK & WHITE 
* FROM CLIP NAME:  X19M/SER 
884  2ND18    V     C        18:15:55:27 18:15:59:00 01:42:01:01 01:42:04:04 
* COLOR BLUISH BLACK & WHITE 
* FROM CLIP NAME:  X19B/SER 
885  2ND18    V     C        18:15:59:00 18:15:59:00 01:42:04:04 01:42:04:04 
FCM: DROP FRAME 
885     BL    V     D    010 00:00:00:00 00:00:00:10 01:42:04:04 01:42:04:14 
* COLOR BLUISH BLACK & WHITE 
* FROM CLIP NAME:  X19B/SER 
886     AX    V     C        00:00:20:29 00:00:25:29 01:42:04:14 01:42:09:14 
* FROM CLIP NAME:  GOOD #4 
887     AX    V     C        00:00:19:14 00:00:24:14 01:42:09:14 01:42:14:14 
* FROM CLIP NAME:  TEASER 
888     BL    V     C        00:00:00:00 00:00:00:00 01:42:14:14 01:42:14:14 
FCM: NON-DROP FRAME 
888  11003    V     D    030 03:32:52:11 03:33:02:15 01:42:14:14 01:42:24:18 
* TO CLIP NAME:  X21/2 
889  10701    V     C        01:00:52:28 01:00:54:20 01:42:24:18 01:42:26:10 
* FROM CLIP NAME:  21/1 
890  11003    V     C        03:33:03:00 03:33:04:08 01:42:26:10 01:42:27:18 
* FROM CLIP NAME:  X21/2 
891  10701    V     C        01:00:55:28 01:00:58:17 01:42:27:18 01:42:30:07 
* FROM CLIP NAME:  21/1 
892  10701    V     C        01:00:58:18 01:01:01:10 01:42:30:07 01:42:32:29 
* FROM CLIP NAME:  21/1 
893  10701    V     C        01:36:18:25 01:36:25:19 01:42:32:29 01:42:39:23 
* FROM CLIP NAME:  21B/4 
894  10701    V     C        01:01:07:06 01:01:09:27 01:42:39:23 01:42:42:14 
* FROM CLIP NAME:  21/1 
895  10701    V     C        01:36:26:09 01:36:28:00 01:42:42:14 01:42:44:05 
* FROM CLIP NAME:  21B/4 
896  10701    V     C        01:06:10:23 01:06:14:13 01:42:44:05 01:42:47:25 
* FROM CLIP NAME:  21A/3 
897  10701    V     C        01:36:31:22 01:36:35:28 01:42:47:25 01:42:52:01 
* FROM CLIP NAME:  21B/4 
898  10701    V     C        01:02:59:10 01:03:08:12 01:42:52:01 01:43:01:05 
* FROM CLIP NAME:  21/4 
899  10701    V     C        01:33:38:14 01:33:40:01 01:43:01:05 01:43:02:22 
* FROM CLIP NAME:  21B/2 
900  10701    V     C        01:04:44:10 01:04:49:23 01:43:02:22 01:43:08:05 
* FROM CLIP NAME:  21/5 
901  10701    V     C        01:36:50:04 01:36:55:20 01:43:08:05 01:43:13:21 
* FROM CLIP NAME:  21B/4 
902  10701    V     C        01:04:52:25 01:04:57:01 01:43:13:21 01:43:17:27 
* FROM CLIP NAME:  21/5 
903  10701    V     C        01:36:59:01 01:37:04:05 01:43:17:27 01:43:23:01 
* FROM CLIP NAME:  21B/4 
904  10701    V     C        01:05:03:28 01:05:05:29 01:43:23:01 01:43:25:02 
* FROM CLIP NAME:  21/5 
905  10701    V     C        01:37:05:10 01:37:07:11 01:43:25:02 01:43:27:03 
* FROM CLIP NAME:  21B/4 
906  10701    V     C        01:05:07:03 01:05:09:23 01:43:27:03 01:43:29:23 
* FROM CLIP NAME:  21/5 
907  10701    V     C        01:35:36:26 01:35:41:03 01:43:29:23 01:43:34:00 
* FROM CLIP NAME:  21B/3 
908  10701    V     C        01:05:14:06 01:05:19:16 01:43:34:00 01:43:39:10 
* FROM CLIP NAME:  21/5 
909  10701    V     C        01:35:47:08 01:35:49:10 01:43:39:10 01:43:41:12 
* FROM CLIP NAME:  21B/3 
910  10701    V     C        01:05:21:18 01:05:24:03 01:43:41:12 01:43:43:27 
* FROM CLIP NAME:  21/5 
911  10701    V     C        01:35:53:00 01:35:55:13 01:43:43:27 01:43:46:10 
* FROM CLIP NAME:  21B/3 
FCM: DROP FRAME 
912     AX    V     C        00:00:23:29 00:00:24:02 01:43:46:10 01:43:46:13 
* FROM CLIP NAME:  BLACK 
913     AX    V     C        00:00:24:02 00:00:24:02 01:43:46:13 01:43:46:13 
913     AX    V     D    003 00:00:47:25 00:00:49:25 01:43:46:13 01:43:48:13 
* FROM CLIP NAME:  BLACK 
* TO CLIP NAME:  EP HATTMAN 
914     AX    V     C        00:00:49:25 00:00:49:25 01:43:48:13 01:43:48:13 
914     AX    V     D    003 00:00:23:18 00:00:24:02 01:43:48:13 01:43:48:27 
* FROM CLIP NAME:  EP HATTMAN 
* TO CLIP NAME:  BLACK 
915     AX    V     C        00:00:24:02 00:00:24:02 01:43:48:27 01:43:48:27 
915     AX    V     D    003 00:00:34:13 00:00:36:11 01:43:48:27 01:43:50:25 
* FROM CLIP NAME:  BLACK 
* TO CLIP NAME:  EP HATTMAN 
916     AX    V     C        00:00:36:11 00:00:36:11 01:43:50:25 01:43:50:25 
916     BL    V     D    003 00:00:00:00 00:00:00:03 01:43:50:25 01:43:50:28 
* FROM CLIP NAME:  EP HATTMAN 
917     AX    V     C        00:00:20:14 00:00:25:14 01:43:50:28 01:43:55:28 
* FROM CLIP NAME:  GOOD #5 
FCM: NON-DROP FRAME 
918  WB1      V     C        01:03:16:00 01:03:20:00 01:43:55:28 01:43:59:28 
* FROM CLIP NAME:  MK LOGO 
FCM: DROP FRAME 
919     AX    V     C        00:00:20:14 00:00:25:14 01:43:59:28 01:44:05:00 
* FROM CLIP NAME:  COMM #6 
FCM: NON-DROP FRAME 
920  2ND15    V     C        15:09:51:28 15:09:55:16 01:44:05:00 01:44:08:18 
* FROM CLIP NAME:  X2J/SERIES 
921  2ND15    V     C        15:09:55:16 15:09:55:16 01:44:08:18 01:44:08:18 
921  2ND15A   V     D    030 15:51:12:14 15:51:14:29 01:44:08:18 01:44:11:03 
* FROM CLIP NAME:  X2J/SERIES 
* TO CLIP NAME:  X13F/SERIES 
922  2ND15A   V     C        15:51:14:29 15:51:14:29 01:44:11:03 01:44:11:03 
922  2ND18    V     D    030 18:15:53:15 18:15:59:23 01:44:11:03 01:44:17:11 
* FROM CLIP NAME:  X13F/SERIES 
* TO CLIP NAME:  X19B/SER 
923  2ND18    V     C        18:15:59:23 18:15:59:23 01:44:17:11 01:44:17:11 
923  2ND15A   V     D    030 15:43:11:05 15:43:18:04 01:44:17:11 01:44:24:10 
* FROM CLIP NAME:  X19B/SER 
* TO CLIP NAME:  X13/SERIES 
924  2ND15A   V     C        15:43:18:04 15:43:18:04 01:44:24:10 01:44:24:10 
924  2ND15AB  V     D    030 15:29:05:18 15:29:16:08 01:44:24:10 01:44:35:00 
* FROM CLIP NAME:  X13/SERIES 
* TO CLIP NAME:  X2L/SERIES 
FCM: DROP FRAME 
925  MTREEL   V     C        01:03:17:03 01:03:20:03 01:44:35:00 01:44:38:00 
* FROM CLIP NAME:  NEW LINE LOGO 
926  MTREEL   V     C        01:04:30:00 01:04:32:00 01:44:38:00 01:44:40:00 
* FROM CLIP NAME:  THRESHOLD LOGO 
927  MTREEL   V     C        01:02:29:29 01:02:32:29 01:44:40:00 01:44:43:00 
* FROM CLIP NAME:  WARNER  LOGO 
